<?xml version="1.0" encoding="UTF-8" standalone="no"?>
<!-- Created with Inkscape (http://www.inkscape.org/) -->

<svg
xmlns:dc="http://purl.org/dc/elements/1.1/"
xmlns:cc="http://creativecommons.org/ns#"
xmlns:rdf="http://www.w3.org/1999/02/22-rdf-syntax-ns#"
xmlns:svg="http://www.w3.org/2000/svg"
xmlns="http://www.w3.org/2000/svg"
xmlns:sodipodi="http://sodipodi.sourceforge.net/DTD/sodipodi-0.dtd"
xmlns:inkscape="http://www.inkscape.org/namespaces/inkscape"
width="371.8316"
height="436.06827"
id="svg2"
version="1.1"
inkscape:version="0.48.1 "
sodipodi:docname="dragon_lizard_dinosaur_with_flower.svg"
style="display:inline">
<title
id="title4165">dragon with flower</title>
<defs
id="defs4" />
<sodipodi:namedview
id="base"
pagecolor="#ffffff"
bordercolor="#666666"
borderopacity="1.0"
inkscape:pageopacity="0.0"
inkscape:pageshadow="2"
inkscape:zoom="1.4"
inkscape:cx="186.86035"
inkscape:cy="228.1568"
inkscape:document-units="px"
inkscape:current-layer="layer2"
showgrid="false"
inkscape:window-width="1173"
inkscape:window-height="817"
inkscape:window-x="84"
inkscape:window-y="84"
inkscape:window-maximized="0"
inkscape:snap-nodes="true"
inkscape:object-paths="false"
fit-margin-top="0"
fit-margin-left="0"
fit-margin-right="0"
fit-margin-bottom="0"
inkscape:object-nodes="false" />
<metadata
id="metadata7">
<rdf:RDF>
<cc:Work
rdf:about="">
<dc:format>image/svg+xml</dc:format>
<dc:type
rdf:resource="http://purl.org/dc/dcmitype/StillImage" />
<dc:title>dragon with flower</dc:title>
<dc:date>2011-05-15</dc:date>
<dc:creator>
<cc:Agent>
<dc:title>tzunghaor (Prim András)</dc:title>
</cc:Agent>
</dc:creator>
<cc:license
rdf:resource="http://creativecommons.org/licenses/publicdomain/" />
<dc:publisher>
<cc:Agent>
<dc:title>openclipart.org</dc:title>
</cc:Agent>
</dc:publisher>
<dc:subject>
<rdf:Bag>
<rdf:li>dragon</rdf:li>
<rdf:li>flower</rdf:li>
<rdf:li>tale</rdf:li>
<rdf:li>fairy tale</rdf:li>
<rdf:li>cartoon</rdf:li>
<rdf:li />
</rdf:Bag>
</dc:subject>
</cc:Work>
<cc:License
rdf:about="http://creativecommons.org/licenses/publicdomain/">
<cc:permits
rdf:resource="http://creativecommons.org/ns#Reproduction" />
<cc:permits
rdf:resource="http://creativecommons.org/ns#Distribution" />
<cc:permits
rdf:resource="http://creativecommons.org/ns#DerivativeWorks" />
</cc:License>
</rdf:RDF>
</metadata>
<g
inkscape:groupmode="layer"
id="layer2"
inkscape:label="Réteg"
transform="translate(-85.040147,-114.28027)">
<path
sodipodi:type="inkscape:offset"
inkscape:radius="5.2000785"
inkscape:original="M 291.28125 119.46875 C 288.66867 119.43685 284.53203 122.18783 282.25 123.5 C 278.57635 125.61235 274.49031 130.97531 271.71875 135.0625 C 271.72925 134.986 271.7399 134.92094 271.75 134.84375 C 272.23282 131.22361 272.39367 126.8521 271.09375 123.78125 C 271.01985 123.60659 270.95952 123.44117 270.875 123.28125 C 270.8423 123.22485 270.81765 123.17667 270.78125 123.125 C 269.02498 120.02812 265.28566 119.93512 262.53125 124.375 C 258.70505 130.54252 255.74284 135.05288 253.96875 142.78125 C 252.55405 143.18267 251.13055 143.59111 249.65625 144.09375 C 242.58346 146.5051 234.93034 152.12949 227.84375 154.5 C 223.75439 155.86792 218.10683 152.94724 215 155.9375 C 214.45318 156.4638 214.12951 157.09713 213.9375 157.8125 C 211.38933 158.29879 209.94576 169.21248 211.71875 171.15625 C 197.13222 183.23475 178.50396 200.10771 179.28125 200.21875 C 179.28125 200.21875 170.20887 202.19783 166.71875 205.3125 C 159.85707 211.43604 155.14832 219.93831 156.71875 229 C 157.52577 233.65664 162.06364 236.51559 165 240.21875 C 166.1436 241.661 167.15675 243.23326 168.125 244.84375 C 169.37824 246.9274 170.55037 249.09352 171.78125 251.1875 C 171.80015 251.2197 171.82485 251.24915 171.84375 251.28125 C 172.32782 252.10247 172.82945 252.89808 173.34375 253.6875 C 173.73101 254.28213 174.11762 254.87009 174.53125 255.4375 C 174.81413 255.82588 175.07667 256.18992 175.375 256.5625 C 175.393 256.585 175.4195 256.6026 175.4375 256.625 C 175.68652 256.93405 175.95733 257.23484 176.21875 257.53125 C 176.40465 257.74207 176.58845 257.95246 176.78125 258.15625 C 177.02391 258.41257 177.27671 258.66197 177.53125 258.90625 C 177.58975 258.96255 177.65955 259.0069 177.71875 259.0625 C 177.84136 259.17748 177.96821 259.29423 178.09375 259.40625 C 178.37486 259.65731 178.64081 259.92099 178.9375 260.15625 C 178.9489 260.16525 178.95735 260.1785 178.96875 260.1875 C 179.30123 260.44988 179.64629 260.69662 180 260.9375 C 187.11187 265.7808 206.0625 264.15625 206.0625 264.15625 C 206.0625 264.15625 203.56668 271.26306 200.3125 280.375 C 200.17317 280.7658 200.20369 280.72961 200.0625 281.125 C 196.85474 290.10049 192.96783 300.8093 190 308.625 C 189.31409 308.80304 188.58555 308.98309 187.8125 309.15625 C 187.70596 309.18025 187.60774 309.19515 187.5 309.21875 C 186.92158 309.34523 186.32088 309.45146 185.71875 309.5625 C 185.5203 309.5992 185.32473 309.6532 185.125 309.6875 C 185.0922 309.6935 185.06395 309.71325 185.03125 309.71875 C 183.91214 309.9085 182.77781 310.04622 181.6875 310.125 C 181.12957 310.165 180.59056 310.1884 180.0625 310.1875 C 179.65059 310.18689 179.26075 310.1548 178.875 310.125 C 178.7177 310.1128 178.55834 310.11115 178.40625 310.09375 C 178.36565 310.08875 178.32145 310.09875 178.28125 310.09375 C 178.11777 310.07325 177.96909 310.0271 177.8125 310 C 177.58377 309.961 177.36895 309.9289 177.15625 309.875 C 176.05432 309.59592 174.94914 309.35931 173.84375 309.125 C 173.81125 309.118 173.7824 309.10055 173.75 309.09375 C 172.68763 308.86877 171.63207 308.65264 170.59375 308.40625 C 170.51945 308.38855 170.44906 308.36175 170.375 308.34375 C 169.91433 308.2325 169.4518 308.12486 169 308 C 168.36431 307.82368 167.73772 307.62172 167.125 307.40625 C 166.46995 307.17627 165.84011 306.9174 165.21875 306.625 C 164.97861 306.51215 164.73427 306.40516 164.5 306.28125 C 160.48477 304.1575 157.36368 300.333 156.25 292.1875 C 155.85974 289.33309 155.34512 286.88563 154.28125 285.1875 C 154.51561 285.00447 154.7019 284.82759 154.8125 284.6875 C 157.49107 281.29464 150.34375 275.3884 146.59375 275.03125 C 142.89033 274.67855 138.71197 279.37647 138.5625 283.46875 L 137.5625 283.875 C 137.4772 283.76274 137.39927 283.64263 137.3125 283.53125 C 135.96175 281.79745 133.42276 277.87248 130.84375 273.8125 C 134.2022 272.38721 136.42655 268.21404 135.53125 266.125 C 134.70507 264.19724 132.70086 262.03373 129.375 260.5 C 131.96135 260.5675 135.18788 260.61862 137.84375 260.40625 C 142.30804 260.04911 150.0393 258.04335 150 254.3125 C 149.9687 251.34064 148.38839 248.26786 141.78125 248.625 C 138.07531 248.82532 134.11173 249.5245 129.875 251.90625 C 131.72658 249.86853 132.97046 248.54036 134.65625 246.65625 C 137.69196 243.2634 136.78571 239.85268 135 238.78125 C 134.33036 238.37946 133.43427 238.15978 132.375 238.1875 C 130.60956 238.2337 128.41637 238.97751 126.25 240.75 C 121.59953 244.55493 121.72846 247.03905 120.9375 250.28125 C 119.69814 246.21778 118.81331 243.56646 116.25 242 C 113.03571 240.03571 107.32143 238.79465 103.75 243.4375 C 101.92489 245.81014 102.33036 250.41072 105.1875 252.375 C 105.6437 252.68864 106.25575 253.03175 106.9375 253.40625 C 106.02264 253.10541 105.13469 252.80557 104.28125 252.53125 C 99.281254 250.92411 92.370849 252.26501 90.53125 257.375 C 88.924108 261.83928 93.75446 262.90625 100.71875 262.90625 C 103.25122 262.90625 105.54043 262.61063 107.4375 262.25 C 101.16042 265.19341 96.28679 269.1598 95.71875 272 C 95.004464 275.57143 93.397321 282 99.46875 279.5 C 102.36513 278.30737 106.17397 275.29091 109.34375 272.25 C 108.56417 274.90277 108.30112 277.05674 108.5625 278.625 C 109.09821 281.83929 109.99107 284.31697 113.5625 283.78125 C 117.13393 283.24554 119.91123 281.17704 120.53125 275.03125 C 120.62055 274.14617 120.65987 272.44119 120.6875 270.5625 C 120.82981 272.41458 123.10382 273.729 126.0625 274.15625 C 129.46283 278.0754 132.80087 281.73242 135 284.6875 C 135.0367 284.7368 135.05745 284.79443 135.09375 284.84375 L 131.3125 286.3125 C 130.62585 286.353 129.99938 286.42051 129.46875 286.46875 C 127.50446 286.64733 119.82618 287.70347 120.71875 291.125 C 121.45374 293.94246 123.44761 294.81109 125.78125 295.03125 C 125.18788 295.72347 124.4211 296.82085 124.46875 297.90625 C 124.51055 298.86001 128.09306 301.4026 130.53125 301.65625 C 130.59325 301.66225 130.65665 301.65025 130.71875 301.65625 C 130.78665 301.85429 130.83411 302.0626 130.90625 302.25 C 128.27962 303.31014 120.7167 304.51249 120.875 308.4375 C 120.9589 310.51823 124.35937 311.14774 126.4375 311.28125 C 126.78162 311.25925 127.14305 311.20765 127.5 311.15625 C 127.84939 311.10545 128.20229 311.0448 128.5625 310.96875 C 128.80726 310.91715 129.06333 310.87455 129.3125 310.8125 C 129.43379 310.7822 129.56525 310.75135 129.6875 310.71875 C 130.06544 310.61803 130.45764 310.49564 130.84375 310.375 C 134.95261 309.09121 139.47803 306.79657 143.4375 305.53125 C 144.86705 314.68864 144.05374 323.4858 143.75 330.21875 L 145.71875 334.875 C 146.35725 327.58544 147.49163 316.19404 145.78125 304.9375 C 147.34785 304.61536 148.78173 304.51826 150 304.875 C 157.16385 307.25537 160.92524 315.76112 167.84375 318.78125 C 172.1687 320.66922 179.25964 321.73722 185.03125 322.34375 C 154.78171 414.44633 206.37351 455.10842 242.375 460.84375 C 249.45126 461.97105 256.16583 462.66208 262.65625 463.15625 C 262.90542 465.71942 262.67005 468.18188 261.375 469.75 C 259.16427 472.4269 254.63433 474.95068 249.1875 477.15625 C 246.79309 478.12581 244.20718 479.04114 241.5625 479.875 C 241.43539 479.915 241.31491 479.9603 241.1875 480 C 240.42958 480.23638 239.67177 480.46374 238.90625 480.6875 C 238.39589 480.83647 237.88674 480.98186 237.375 481.125 C 236.99085 481.2326 236.60292 481.33328 236.21875 481.4375 C 236.13605 481.4599 236.05143 481.4778 235.96875 481.5 C 231.57896 482.68258 227.23669 483.63849 223.40625 484.3125 C 223.18345 484.3517 222.93787 484.4003 222.71875 484.4375 C 220.65919 484.78663 218.70389 485.05183 217.0625 485.21875 C 216.9842 485.22675 216.88967 485.2426 216.8125 485.25 C 216.69235 485.2616 216.58604 485.27075 216.46875 485.28125 C 214.91961 485.42044 213.5902 485.46475 212.625 485.40625 C 205.74468 484.98926 203.207 479.15608 190.15625 478.09375 C 177.1055 477.03142 165.4164 494.7592 164.40625 500.0625 C 163.69567 503.79303 163.62067 506.51502 167.5 507.71875 C 167.5698 507.70475 167.64836 507.7012 167.71875 507.6875 C 169.01615 508.233 171.18921 508.48718 174.75 508.40625 C 185.86168 508.15372 193.4375 504.09375 193.4375 504.09375 C 193.4375 504.09375 196.97461 501.57852 199.5 503.09375 C 202.02538 504.60898 209.7191 504.38753 218.1875 501.3125 C 233.12328 495.88905 252.56373 494.60572 269.96875 493 C 276.84431 492.36569 288.13086 495.783 290.65625 492.5 C 293.18163 489.21701 295.46037 486.34179 291 478.59375 C 289.43014 475.86677 287.51028 469.79599 285.9375 464.34375 C 295.53497 464.71594 304.98805 465.1416 314.78125 466.3125 C 316.06903 466.47036 317.35318 466.63668 318.625 466.8125 C 319.88069 466.98795 321.13608 467.17037 322.40625 467.375 C 323.33678 470.23514 324.07952 473.29781 323.9375 475.5625 C 323.8722 476.60395 323.77522 477.6818 323.65625 478.78125 C 323.63605 478.97074 323.61575 479.15311 323.59375 479.34375 C 323.48685 480.26402 323.36652 481.19021 323.21875 482.125 C 321.90874 490.41202 318.847 499.0493 312.3125 502.53125 C 291.11375 513.82716 253.5625 514.5 253.5625 514.5 C 253.5625 514.5 242.87054 505.3884 237.15625 505.03125 C 231.44197 504.67411 224.62947 512.17411 220.34375 517.53125 C 217.68649 520.85282 215.80027 525.61639 216.34375 529.53125 C 216.38215 529.81763 216.43545 530.09869 216.5 530.375 C 216.508 530.4072 216.52315 530.43675 216.53125 530.46875 C 216.59695 530.73561 216.65805 530.99444 216.75 531.25 C 216.785 531.3454 216.8362 531.43759 216.875 531.53125 C 216.97701 531.78113 217.08861 532.01355 217.21875 532.25 C 217.28195 532.36433 217.33636 532.48282 217.40625 532.59375 C 217.71699 533.08957 218.10647 533.55073 218.5625 533.96875 C 222.84821 537.89732 234.65625 535.21875 234.65625 535.21875 C 238.47625 541.54026 243.80338 542.69649 250 540.9375 C 250.92151 541.86083 251.38913 542.3207 252.5 543.0625 C 252.64859 543.16905 252.78968 543.2767 252.9375 543.375 C 253.07837 543.4643 253.18156 543.52571 253.34375 543.625 C 253.38455 543.65 253.42795 543.6632 253.46875 543.6875 C 255.76213 545.07186 257.94252 545.47273 260.0625 545 C 263.72066 544.32777 266.91807 541.42905 268.9375 537.71875 C 275.148 541.77828 282.36718 538.37082 290 532 C 292.79354 529.66834 299.85575 526.81776 307.28125 524.5 C 308.20944 524.21028 309.13024 523.92707 310.0625 523.65625 C 316.58829 521.76049 323.03125 520.375 326.78125 520.21875 C 332.13839 519.99554 339.13991 518.91501 344.09375 517.625 C 345.08452 517.367 345.98415 517.08169 346.78125 516.8125 C 347.9769 516.40871 348.9378 516.02445 349.53125 515.625 C 349.72907 515.49185 349.88389 515.34879 350 515.21875 C 354.46428 510.21876 348.77272 503.55574 346.4375 497.375 C 344.04327 491.03805 343.09241 480.75933 342.71875 472.4375 C 342.74055 472.4445 342.75945 472.46145 342.78125 472.46875 C 344.07445 472.90349 345.36869 473.35082 346.65625 473.8125 C 346.80148 473.8646 346.94859 473.91637 347.09375 473.96875 C 347.37667 474.07082 347.65481 474.17812 347.9375 474.28125 C 348.50157 474.48707 349.06179 474.69664 349.625 474.90625 C 349.91648 475.01471 350.20872 475.10939 350.5 475.21875 C 352.50504 475.97167 354.50194 476.75067 356.5 477.53125 C 357.06193 477.75068 357.62587 477.96722 358.1875 478.1875 C 360.73029 479.18533 363.26961 480.17378 365.8125 481.15625 C 365.8251 481.16125 365.83125 481.1827 365.84375 481.1875 C 367.1105 481.67683 368.38771 482.14963 369.65625 482.625 C 369.66875 482.63 369.675 482.65155 369.6875 482.65625 C 370.95597 483.13141 372.22852 483.57681 373.5 484.03125 C 376.07838 484.95221 378.65167 485.83082 381.25 486.625 C 382.54407 487.02109 383.82411 487.3957 385.125 487.75 C 385.135 487.753 385.14675 487.747 385.15625 487.75 C 386.44743 488.1013 387.73211 488.44668 389.03125 488.75 C 389.04125 488.752 389.0527 488.748 389.0625 488.75 C 389.33392 488.8133 389.6032 488.87649 389.875 488.9375 C 392.22291 489.46452 394.58853 489.91455 396.96875 490.25 C 397.63319 490.3438 398.27018 490.42313 398.9375 490.5 C 398.9478 490.501 398.95855 490.499 398.96875 490.5 C 400.96066 490.72863 402.97963 490.87495 405 490.9375 C 420.71219 491.42393 445.13589 487.94933 451 480.59375 C 453.2299 477.7967 449.54095 477.09202 445 476.53125 C 444.2894 475.22291 443.4483 473.59811 442.84375 472.1875 C 442.04018 470.3125 439.385 468.38441 437.3125 468.40625 C 436.62167 468.41325 436.00142 468.64124 435.53125 469.15625 C 434.05391 470.77448 433.28182 471.17472 431.84375 472.8125 C 431.43353 472.59557 431.03868 472.37224 430.625 472.15625 C 429.93665 471.79684 429.22812 471.4512 428.53125 471.09375 C 428.64111 468.60352 428.74107 464.98661 428.40625 462.53125 C 428.13839 460.56696 427.01339 459.90179 425.71875 459.8125 C 424.42411 459.7232 422.95089 460.20535 421.96875 460.5625 C 420.29864 461.16981 420.70109 460.6621 415.8125 464.6875 C 414.61494 464.08432 413.41278 463.48904 412.21875 462.875 C 411.72405 462.62059 411.24335 462.35047 410.75 462.09375 C 410.7662 458.20001 410.42405 452.94263 410.53125 451.65625 C 410.67634 449.91518 407.86353 448.50939 405.5625 448.625 C 405.03149 448.6517 404.52902 448.76786 404.09375 448.96875 C 402.23275 449.82768 400.8888 451.28405 396.3125 453.84375 C 395.65267 453.41661 395.02156 453.00077 394.375 452.5625 C 393.04268 451.65938 391.73599 450.70561 390.46875 449.75 C 391.67565 445.59568 393.21875 439.7816 393.21875 437 C 393.21875 432.70312 391.70824 430.9558 389.25 430.96875 C 388.13262 430.97475 386.79464 431.33036 385.34375 432 C 383.231 432.97511 380.83879 434.36316 377.3125 436.65625 C 376.3352 435.2949 375.42036 433.90559 374.59375 432.4375 C 376.07766 428.77729 379.1161 421.28509 379.46875 420.03125 C 381.07589 414.31697 378.91374 411.25845 374.28125 411.28125 C 371.44173 411.29525 370.0296 412.731 366.78125 414.28125 C 366.36286 413.27405 365.95326 412.25869 365.53125 411.25 C 367.90154 408.29851 372.1791 402.85761 372.84375 400.9375 C 374.45088 396.29464 371.36346 393.70681 366.25 393.0625 C 364.23159 392.80818 362.99093 392.42303 361.375 392.375 C 360.38222 392.3455 359.19235 392.4623 357.65625 392.8125 C 357.30914 392.01734 356.94275 391.23269 356.59375 390.4375 C 356.58975 390.4285 356.59775 390.41495 356.59375 390.40625 C 358.2116 387.27637 361.90657 380.12411 363.03125 377 C 364.53794 372.81474 361.80695 369.73145 357.78125 369.65625 C 357.51287 369.65125 357.24777 369.6653 356.96875 369.6875 C 355.03196 369.84245 351.80779 370.37726 347.90625 371.03125 C 347.52404 370.19759 347.13391 369.36391 346.75 368.53125 C 349.06052 364.27668 353.4312 355.98847 353.5625 353.625 C 353.74107 350.41072 348.55804 349.51786 346.59375 349.875 C 345.00522 350.16382 343.10362 350.37856 338.53125 351.09375 C 338.42226 350.8666 338.32785 350.63325 338.21875 350.40625 C 337.90732 349.75819 337.5935 349.11559 337.28125 348.46875 C 338.99914 345.72598 341.34013 341.88984 343.21875 338.25 C 345.89733 333.06027 343.22175 327.70665 338.90625 327.5 C 338.61856 327.4862 338.33259 327.49805 338.03125 327.53125 C 335.3963 327.82402 331.97345 328.54208 327.71875 329.09375 C 327.08032 327.83181 326.45321 326.56691 325.8125 325.3125 C 327.93769 321.93768 331.67303 315.82286 332.6875 312.90625 C 334.11607 308.79911 330.58509 304.16262 324.09375 304.5 C 321.34981 304.64261 318.06872 305.1354 315.4375 305.5625 C 315.3716 305.44027 315.31586 305.30963 315.25 305.1875 C 315.01871 304.75861 314.79394 304.33383 314.5625 303.90625 C 317.60961 300.09384 323.89072 292.00998 324.46875 289.3125 C 325.54019 284.3125 320.89732 282.35268 316.96875 282.53125 C 314.18652 282.65771 307.66293 284.01498 303.90625 284.84375 C 303.58673 284.28779 303.28831 283.74035 302.96875 283.1875 C 304.46271 280.02894 308.55021 271.39383 310.1875 267.375 C 312.15179 262.55357 309.45535 260.23214 304.8125 259.875 C 304.23214 259.8304 303.69964 259.78125 303.15625 259.78125 C 300.01141 259.78125 296.94407 260.5672 290.75 262.0625 C 290.7246 262.0075 290.68145 261.96135 290.65625 261.90625 C 290.58615 261.75374 290.53737 261.59078 290.46875 261.4375 C 290.20606 260.84919 289.95971 260.25518 289.71875 259.65625 C 289.55492 259.25027 289.40368 258.84816 289.25 258.4375 C 289.1926 258.28441 289.14972 258.12246 289.09375 257.96875 C 292.3519 255.48693 297.51404 251.23857 299.65625 247.90625 C 302.87053 242.90625 298.7634 238.2634 293.40625 236.65625 C 291.26654 236.01434 289.65257 235.74577 287.84375 235.75 C 287.3556 235.751 286.84611 235.7746 286.3125 235.8125 C 286.42876 234.71017 286.55402 233.60326 286.75 232.5 C 286.759 232.4482 286.77185 232.39552 286.78125 232.34375 C 286.93476 231.49634 287.11053 230.65859 287.3125 229.8125 C 291.42842 228.55864 296.03811 225.65167 298.5625 223.96875 C 301.77679 221.82589 302.51339 219.5 300.90625 217 C 299.62647 215.00922 298.07167 212.78388 295.25 210.25 C 296.65799 206.95894 298.05398 203.47966 299.375 199.9375 C 301.59871 198.96396 304.14933 197.86855 305.53125 197.375 C 308.03125 196.48214 310.37053 192.8884 308.40625 190.03125 C 307.46174 188.65742 305.49956 187.60961 303.71875 186.90625 C 304.05219 185.76063 304.38429 184.61126 304.6875 183.46875 C 307.40871 181.63045 310.70411 179.39656 313.15625 177.6875 C 317.32313 174.78331 314.86207 172.70278 313.28125 171.25 C 311.20904 169.34563 309.98776 168.73551 307.65625 167.96875 C 307.80118 166.62268 307.90567 165.29764 307.96875 164 C 310.98227 161.33833 315.74107 156.98661 316.6875 155.09375 C 318.07646 152.31583 315.03046 150.0376 312 149.40625 C 311.24239 149.24841 310.16436 149.17401 308.96875 149.15625 C 307.56579 149.13545 306.06469 149.178 304.6875 149.25 C 304.6056 149.12534 304.52299 148.99827 304.4375 148.875 C 304.4244 148.8561 304.41935 148.8314 304.40625 148.8125 C 304.62181 148.37646 305.40019 146.77148 306.125 144.625 C 306.128 144.616 306.122 144.60305 306.125 144.59375 C 306.64181 143.0582 307.08538 141.37704 307.125 139.9375 C 307.12526 139.9268 307.12478 139.91685 307.125 139.90625 C 307.132 139.61705 307.12095 139.35926 307.09375 139.09375 C 307.03895 138.56315 306.91016 138.08435 306.6875 137.6875 C 306.53226 137.4108 306.38599 137.16519 306.25 136.96875 C 306.2155 136.92065 306.1594 136.85618 306.125 136.8125 C 306.116 136.8006 306.10295 136.79275 306.09375 136.78125 C 306.01305 136.68175 305.9276 136.57795 305.84375 136.5 C 305.66075 136.32549 305.45429 136.21578 305.21875 136.125 C 305.14995 136.0989 305.07579 136.0835 305 136.0625 C 304.9428 136.0467 304.9057 136.0133 304.84375 136 C 304.80985 135.993 304.75415 136.007 304.71875 136 C 303.83681 135.83844 302.47207 135.85296 299.90625 135.65625 C 296.79112 135.41743 293.7998 136.99679 291.84375 138.34375 C 292.70324 135.48348 293.94007 130.43875 293.84375 125.15625 C 293.84317 125.12475 293.84443 125.094 293.84375 125.0625 C 293.81945 123.91862 293.7324 122.76064 293.5625 121.625 C 293.32737 120.05336 292.46878 119.48325 291.28125 119.46875 z M 120.71875 267.71875 C 120.78195 268.57372 120.80585 269.3779 120.71875 270.03125 C 120.70335 270.14655 120.6872 270.2631 120.6875 270.375 C 120.6996 269.50123 120.71455 268.61264 120.71875 267.71875 z "
style="fill:#000000;fill-opacity:1;stroke:none"
id="path3366"
d="m 291.34375,114.28125 c -3.16457,-0.0386 -5.16765,1.07045 -7.09375,2.0625 -1.9261,0.99205 -3.63702,2.10613 -4.59375,2.65625 -1.36151,0.78287 -2.61681,1.72219 -3.78125,2.75 -0.0105,-0.0249 -0.10718,-0.34039 -0.40625,-0.90625 a 5.2005985,5.2005985 0 0 0 -0.0937,-0.15625 c 0.009,0.0157 -0.058,-0.11524 -0.0625,-0.125 -0.0181,-0.0319 -0.044,-0.062 -0.0625,-0.0937 -0.0463,-0.0834 -0.048,-0.10134 -0.21875,-0.34375 L 275,120.15625 c -1.73814,-2.69467 -5.0294,-4.73816 -8.46875,-4.40625 -3.62036,0.34937 -6.46475,2.74547 -8.40625,5.875 -3.30724,5.331 -6.31737,10.21277 -8.34375,17 -0.60823,0.18664 -1.17142,0.31268 -1.8125,0.53125 -8.32595,2.8386 -15.97324,8.46343 -21.78125,10.40625 -0.30581,0.1023 -2.12073,0.0834 -4.71875,-0.125 -2.59802,-0.20839 -6.76536,-0.42343 -10.0625,2.75 -0.70948,0.68285 -1.23378,1.48006 -1.65625,2.28125 -0.25251,0.24871 -0.59411,0.48555 -0.78125,0.71875 -0.74054,0.9228 -1.14226,1.79492 -1.5,2.65625 -0.71548,1.72266 -1.12999,3.4827 -1.40625,5.3125 -0.27626,1.8298 -0.38292,3.68136 -0.28125,5.46875 0.014,0.24659 0.056,0.50356 0.0625,0.75 -6.68187,5.60429 -13.90354,11.81895 -19.59375,16.9375 -3.21746,2.89421 -5.94004,5.39682 -7.875,7.25 -0.87596,0.83894 -1.52672,1.49809 -2.09375,2.09375 -0.97468,0.23735 -1.64932,0.36433 -3.59375,1 -2.97594,0.97289 -6.43062,2.09783 -9.4375,4.78125 -7.76398,6.92877 -13.61877,17.11337 -11.65625,28.4375 0.65296,3.76771 2.75091,6.53566 4.625,8.59375 1.87409,2.05809 3.65605,3.62854 4.71875,4.96875 0.92946,1.17219 1.8058,2.57525 2.71875,4.09375 1.17093,1.94679 2.3623,4.07997 3.65625,6.28125 0.18466,0.31135 0.29632,0.49087 0.0625,0.0937 0.53602,0.90936 1.08259,1.79243 1.625,2.625 0.39551,0.6073 0.83141,1.26593 1.34375,1.96875 l -0.0312,0 c 0.27391,0.37607 0.59907,0.81179 1,1.3125 0.74692,0.93365 0.77241,0.94594 0.0625,0.0625 0.37041,0.4597 0.70013,0.82461 0.9375,1.09375 0.17537,0.19888 0.40066,0.44681 0.6875,0.75 0.32451,0.34277 0.64823,0.65989 0.9375,0.9375 0.56447,0.54324 0.64049,0.58359 0.21875,0.1875 0.14682,0.13768 0.30236,0.28903 0.46875,0.4375 0.14726,0.13152 0.50029,0.46692 1.09375,0.9375 a 5.2005985,5.2005985 0 0 0 0,0.0312 c -0.95595,-0.7547 -0.9475,-0.74145 0.0312,0.0312 0.46144,0.36415 0.89376,0.68358 1.3125,0.96875 5.55562,3.78347 12.45791,4.10072 18.4375,4.3125 1.71573,0.0608 1.69527,-0.0424 3.15625,-0.0625 -1.03947,2.94335 -1.41775,3.99457 -3.25,9.125 -0.18589,0.5214 -0.15483,0.48348 -0.25,0.75 -2.89839,8.10987 -6.281,17.32793 -9.09375,24.8125 -0.38592,0.0783 -0.77726,0.15706 -1.28125,0.25 -0.49464,0.0915 -0.67074,0.14895 -0.53125,0.125 a 5.2005985,5.2005985 0 0 0 -0.0625,0 c -0.24867,0.0455 -0.20816,0.0322 -0.375,0.0625 -0.84506,0.13329 -1.69574,0.25439 -2.5,0.3125 -0.46394,0.0333 -0.88159,0.0631 -1.25,0.0625 -0.14669,-2.2e-4 -0.37792,-0.0313 -0.78125,-0.0625 -0.34775,-0.027 -0.3804,-0.0159 -0.25,0 -0.44327,-0.0546 0.12699,0.0174 -0.0312,0 -0.31649,-0.0348 -0.90639,-0.10496 -0.0625,0 0.40631,0.051 0.33907,0.0394 -0.25,-0.0625 -0.29447,-0.0502 -0.36892,-0.0614 -0.25,-0.0312 -1.226,-0.3105 -2.38773,-0.57673 -3.5,-0.8125 1.08723,0.23417 1.0503,0.21542 -0.125,-0.0312 -1.07432,-0.22751 -2.0749,-0.43735 -3,-0.65625 0.0471,0.0112 -0.0637,-0.007 -0.0312,0 0.21337,0.0492 0.23806,0.0409 -0.1875,-0.0625 -0.48873,-0.11803 -0.90565,-0.19472 -1.21875,-0.28125 -0.49826,-0.1382 -1.00587,-0.31524 -1.53125,-0.5 -0.48727,-0.17108 -0.93996,-0.37432 -1.40625,-0.59375 -0.32398,-0.15225 -0.49312,-0.21511 -0.5,-0.21875 -2.71891,-1.4381 -4.56461,-3.14874 -5.53125,-10.21875 -0.26828,-1.96223 -0.69351,-3.88954 -1.34375,-5.8125 0.62939,-1.91168 0.58014,-4.00706 0.0625,-5.53125 -0.7348,-2.16361 -1.97862,-3.71157 -3.3125,-5.0625 -2.66777,-2.70187 -5.46085,-4.81323 -9.71875,-5.21875 -3.03632,-0.28917 -5.522,0.79342 -7.53125,2.3125 1.05802,-1.94154 1.82479,-4.16219 1.0625,-6.90625 2.22308,-0.33304 4.57659,-0.85098 6.9375,-1.8125 1.60354,-0.65307 3.20247,-1.46065 4.6875,-2.8125 1.48503,-1.35185 2.96629,-3.6417 2.9375,-6.375 -0.0252,-2.38863 -0.80034,-5.60453 -3.375,-7.90625 -2.57466,-2.30172 -6.18401,-3.12941 -10.3125,-2.90625 -0.009,5.1e-4 -0.0218,-5.2e-4 -0.0312,0 0.4995,-3.62842 -0.55977,-7.1921 -3.78125,-9.125 -1.70757,-1.02455 -3.58335,-1.36102 -5.4375,-1.3125 -3.11194,0.0814 -6.33544,1.30853 -9.28125,3.71875 -0.92638,0.75795 -1.56206,1.56138 -2.25,2.34375 -0.56377,-0.52231 -1.07488,-1.08743 -1.75,-1.5 -2.36129,-1.44301 -5.37288,-2.56936 -8.90625,-2.53125 -3.53337,0.0381 -7.69807,1.68875 -10.4375,5.25 -1.617356,2.10256 -2.025767,4.42132 -2,6.75 -0.971732,0.12893 -1.94692,0.11908 -2.90625,0.40625 -3.713083,1.1115 -7.52016,3.81642 -9.09375,8.1875 -0.705337,1.95927 -0.895327,4.47509 0.125,6.6875 1.020327,2.21241 2.894911,3.51733 4.5625,4.25 0.659819,0.2899 1.338136,0.3406 2,0.53125 -0.749321,1.09034 -1.371242,2.29371 -1.6875,3.875 -0.327725,1.63863 -1.272014,4.24753 -0.71875,7.84375 0.276632,1.79811 1.508737,4.61048 4.21875,5.8125 2.710013,1.20202 5.143802,0.58049 7.3125,-0.3125 0.96692,-0.39814 1.83015,-1.08985 2.75,-1.625 0.33521,0.99412 0.80051,2.02566 1.625,3.09375 1.7678,2.2901 5.51962,3.608 8.53125,3.15625 0.50316,-0.0755 1.03784,-0.33079 1.5625,-0.46875 -0.41545,1.27088 -0.55754,2.67007 -0.21875,3.96875 0.57049,2.18688 1.94656,4.14499 3.625,5.46875 0.002,0.0821 -0.0349,0.13467 -0.0312,0.21875 0.0643,1.4669 0.33561,2.31072 0.6875,2.90625 -0.50993,0.3412 -1.02599,0.65207 -1.53125,1.125 -1.46261,1.36903 -2.85719,3.84217 -2.75,6.5 0.0775,1.92257 1.06646,3.7508 2.15625,4.8125 1.08979,1.0617 2.20087,1.58642 3.1875,1.96875 1.97327,0.76467 3.6827,0.9426 5.0625,1.03125 a 5.2005985,5.2005985 0 0 0 0.6875,0 c 0.62942,-0.0402 1.10761,-0.10425 1.46875,-0.15625 0.4392,-0.0639 0.88988,-0.14758 1.375,-0.25 0.0937,-0.0197 0.41923,-0.0897 0.9375,-0.21875 0.0693,-0.0173 0.23891,-0.0325 0.46875,-0.0937 0.52582,-0.14013 0.9877,-0.28524 1.375,-0.40625 2.45917,-0.76835 4.32301,-1.5781 6.53125,-2.5 0.3029,6.10889 -0.14318,12.01744 -0.375,17.15625 a 5.2005985,5.2005985 0 0 0 0.40625,2.25 l 1.96875,4.65625 a 5.2005985,5.2005985 0 0 0 9.96875,-1.5625 c 0.49836,-5.68961 1.30158,-14.27232 0.75,-23.5625 1.11832,0.90926 2.32181,2.05439 3.625,3.40625 2.65267,2.75174 5.68572,6.28707 10.46875,8.375 3.79372,1.65607 8.26434,2.48988 12.65625,3.125 -13.08102,44.03849 -7.85632,77.21104 6,100 14.4886,23.82884 37.6511,36.17392 57.15625,39.28125 4.99691,0.79604 9.58721,1.17585 14.25,1.625 -1.75042,1.35733 -4.59105,3.14185 -8.5625,4.75 -2.24248,0.90804 -4.71903,1.76449 -7.25,2.5625 -0.30196,0.095 -0.43132,0.14255 -0.375,0.125 -0.72216,0.22523 -1.44542,0.43934 -2.1875,0.65625 -0.49097,0.14331 -0.97501,0.29939 -1.46875,0.4375 -0.31986,0.0896 -0.70384,0.16699 -1.125,0.28125 0.10653,-0.0289 0.046,-0.009 -0.21875,0.0625 -4.23774,1.14162 -8.46042,2.07392 -12.125,2.71875 -0.30295,0.0533 -0.54186,0.10558 -0.65625,0.125 -1.95268,0.33101 -3.80911,0.56586 -5.3125,0.71875 -0.3482,0.0356 -0.44224,0.0527 -0.21875,0.0312 -0.0885,0.009 -0.18449,0.0198 -0.3125,0.0312 -1.38301,0.12426 -2.54339,0.15646 -3.0625,0.125 -2.0172,-0.12225 -3.43688,-1.06921 -6.8125,-2.84375 -3.37562,-1.77454 -8.26593,-3.87735 -15.53125,-4.46875 -8.98184,-0.73112 -16.3729,4.64997 -21.625,10.21875 -2.62605,2.78439 -4.77353,5.72975 -6.40625,8.4375 -1.63272,2.70775 -2.75218,4.9177 -3.25,7.53125 -0.3925,2.0606 -0.89788,4.31552 -0.0625,7.1875 0.83538,2.87198 3.71044,5.47279 6.71875,6.40625 a 5.2005985,5.2005985 0 0 0 1.5,0.21875 c 0.01,0.003 0.0216,-0.003 0.0312,0 2.13081,0.56274 4.3506,0.75624 7.375,0.6875 12.32369,-0.28007 21.03125,-4.90625 21.03125,-4.90625 a 5.2005985,5.2005985 0 0 0 0.53125,-0.34375 c 0,0 0.40464,-0.26526 0.875,-0.4375 0.16418,-0.0601 0.15186,-0.0285 0.15625,-0.0312 3.09093,1.61514 5.95131,1.52177 9.53125,1.25 3.8369,-0.29127 8.29731,-1.24122 12.96875,-2.9375 1.6986,-0.61679 3.68452,-1.01697 5.53125,-1.53125 -0.21045,0.17304 -0.45013,0.3255 -0.65625,0.5 -3.40483,2.88239 -6.3195,6.32126 -8.5625,9.125 -3.41643,4.27053 -5.92835,9.84294 -5.09375,15.9375 0.001,0.0106 -0.001,0.0207 0,0.0312 0.0626,0.45874 0.1542,0.90243 0.25,1.3125 a 5.2005985,5.2005985 0 0 0 0.0312,0.0625 c 0.15211,0.61225 0.099,0.37297 0.0312,0.0937 l -0.0312,0 c 0.058,0.23566 0.15283,0.66375 0.375,1.28125 a 5.2005985,5.2005985 0 0 0 0.0312,0.0312 c 0.21428,0.58406 0.27766,0.694 0.1875,0.46875 0.004,0.009 -0.004,0.0224 0,0.0312 0.17471,0.42489 0.37951,0.8295 0.59375,1.21875 a 5.2005985,5.2005985 0 0 0 0,0.0312 c -0.059,-0.1067 0.0615,0.10895 0.34375,0.5625 0.008,0.0126 0.0233,0.0187 0.0312,0.0312 0.57383,0.90761 1.26867,1.73848 2.03125,2.4375 4.33041,3.96954 9.40517,3.64236 13.40625,3.4375 2.06022,-0.10548 2.44166,-0.2783 3.78125,-0.5 2.11363,2.49094 4.67936,4.33273 7.53125,5.28125 2.87082,0.95481 5.81185,0.84359 8.6875,0.375 0.35377,0.28549 0.6152,0.55932 1.03125,0.84375 l -0.0312,0.0312 c 0.0166,0.0119 0.12488,0.0704 0.15625,0.0937 0.0962,0.0716 0.18488,0.17576 0.4375,0.34375 a 5.2005985,5.2005985 0 0 0 0.0937,0.0625 c 0.20024,0.12693 0.32991,0.19626 0.46875,0.28125 0.59701,0.36581 0.44113,0.23798 0.15625,0.0625 0.0117,0.007 0.0195,0.0242 0.0312,0.0312 3.09755,1.85905 6.78316,2.63906 10.1875,1.9375 l 0,0.0312 c 0.0668,-0.0123 0.12115,-0.0494 0.1875,-0.0625 4.00466,-0.79036 7.23538,-3.09641 9.6875,-6.03125 3.23377,0.79274 6.62323,0.66623 9.65625,-0.3125 4.58872,-1.48073 8.72706,-4.30879 12.8125,-7.71875 1.08426,-0.90499 8.33693,-4.2954 15.5,-6.53125 0.91453,-0.28546 1.77575,-0.55672 2.65625,-0.8125 6.29706,-1.82931 12.77997,-3.13667 15.5,-3.25 5.86627,-0.24442 12.98138,-1.33733 18.40625,-2.75 1.15263,-0.30015 2.1657,-0.61394 3.03125,-0.90625 1.34298,-0.45355 2.53102,-0.82373 4,-1.8125 0.58655,-0.3948 1.05381,-0.82028 1.4375,-1.25 1.86382,-2.08748 2.86907,-4.82148 2.96875,-7.28125 0.0997,-2.45977 -0.50143,-4.60038 -1.21875,-6.5 -1.43464,-3.79925 -3.42021,-7.01332 -4.3125,-9.375 -1.31705,-3.48592 -2.1417,-9.42564 -2.71875,-15.46875 0.0186,0.007 0.0784,0.0255 0.0937,0.0312 1.96371,0.7374 3.90977,1.50129 5.90625,2.28125 0.58025,0.22659 1.14901,0.44505 1.6875,0.65625 2.52094,0.98925 5.04221,1.96358 7.5625,2.9375 0.0216,0.008 0.0409,0.0229 0.0625,0.0312 0.009,0.003 0.0222,-0.003 0.0312,0 0.0195,0.008 0.0115,0.0236 0.0312,0.0312 1.2499,0.48282 2.48843,0.9574 3.6875,1.40625 0.0178,0.007 0.0448,-0.007 0.0625,0 0.003,0.001 -0.003,0.03 0,0.0312 0.0606,0.0244 0.0611,0.0385 0.125,0.0625 a 5.2005985,5.2005985 0 0 0 0.0312,0 c 1.33869,0.50147 2.62497,0.95948 3.875,1.40625 2.62389,0.93722 5.26297,1.82923 7.96875,2.65625 1.28113,0.39213 2.5685,0.7671 3.875,1.125 0.0543,0.0149 0.10191,0.0477 0.15625,0.0625 a 5.2005985,5.2005985 0 0 0 0.0312,0 c 1.30119,0.35402 2.65139,0.70179 4.0625,1.03125 a 5.2005985,5.2005985 0 0 0 0.0312,0 5.2005985,5.2005985 0 0 0 0.125,0.0312 c 0.009,0.002 0.0219,-0.002 0.0312,0 0.14152,0.0283 0.097,0.0381 0.21875,0.0625 0.16026,0.0372 0.32705,0.0549 0.5,0.0937 0.29204,0.0585 0.8401,0.15579 0.84375,0.15625 2.19118,0.47447 4.3973,0.93164 6.65625,1.25 0.71811,0.10138 1.39611,0.16964 2.09375,0.25 a 5.2005985,5.2005985 0 0 0 0.0312,0 5.2005985,5.2005985 0 0 0 0.0625,0.0312 c 1.02041,0.0991 1.04421,0.0993 0.0312,0 l 0,-0.0312 c 2.10754,0.2393 4.24222,0.40272 6.375,0.46875 8.32216,0.25764 18.58614,-0.496 27.84375,-2.3125 9.25761,-1.8165 17.49812,-3.85149 22.375,-9.96875 1.05947,-1.32894 2.23514,-3.46794 1.65625,-6.09375 -0.57889,-2.62581 -2.54989,-4.03552 -3.875,-4.6875 -1.58548,-0.78009 -3.0163,-1.0977 -4.40625,-1.3125 -0.27533,-0.55857 -0.61123,-1.15538 -0.8125,-1.625 -0.96444,-2.25036 -2.42039,-3.64547 -4.09375,-4.8125 -1.67336,-1.16703 -3.60929,-2.12191 -6.28125,-2.09375 -1.1215,0.0114 -2.37817,0.40495 -3.5625,1.03125 -0.0458,-0.81047 -0.0177,-1.61959 -0.125,-2.40625 -0.255,-1.86996 -1.11979,-3.88626 -2.65625,-5.25 -1.53646,-1.36374 -3.41531,-1.87023 -4.84375,-1.96875 -2.84673,-0.19636 -4.73588,0.64827 -5.875,1.0625 -0.52375,0.19045 -1.61464,0.47728 -2.84375,1.25 -0.38001,0.2389 -1.09755,0.86012 -1.5,1.15625 -0.0246,-0.79891 -0.005,-1.64759 -0.0312,-2.375 -0.0701,-1.96234 -0.0606,-4.02235 -0.0937,-3.625 0.31312,-3.7574 -2.2652,-6.06016 -4.1875,-7.15625 -1.9223,-1.09609 -3.9072,-1.61614 -6.21875,-1.5 -1.12218,0.0564 -2.28095,0.29314 -3.40625,0.8125 -2.11334,0.9754 -3.51431,2.03748 -5.40625,3.3125 0.98702,-3.44248 1.90625,-7.09373 1.90625,-10.5625 0,-2.75778 -0.37264,-5.31474 -2,-7.625 -1.62736,-2.31026 -4.72075,-3.60674 -7.1875,-3.59375 -2.19834,0.0118 -4.14318,0.61416 -6.0625,1.5 -0.32648,0.15068 -0.82277,0.49082 -1.15625,0.65625 0.0982,-0.24607 0.18505,-0.44559 0.28125,-0.6875 0.99887,-2.51167 1.68818,-4.03716 2.1875,-5.8125 1.03359,-3.675 1.1719,-7.44899 -0.84375,-10.6875 -1.70732,-2.74311 -4.7499,-4.12694 -7.75,-4.5 0.70355,-1.00815 1.34396,-2.09088 1.875,-3.625 1.23795,-3.57634 0.59845,-7.98309 -1.875,-10.65625 -2.47345,-2.67316 -5.68407,-3.64862 -8.96875,-4.0625 -0.90318,-0.1138 -2.01405,-0.24872 -2.96875,-0.40625 1.53144,-3.02213 3.0996,-6.24888 4,-8.75 1.23035,-3.41764 0.79096,-7.37686 -1.3125,-10.125 -2.10346,-2.74814 -5.43222,-4.09427 -8.75,-4.15625 -0.51354,-0.01 -0.9468,0.002 -1.3125,0.0312 -0.51784,0.0414 -1.44567,0.24115 -2.03125,0.3125 0.40022,-0.79127 0.74313,-1.39547 1.125,-2.1875 0.73233,-1.51888 1.3966,-3.0052 1.9375,-4.375 0.5409,-1.3698 1.04413,-2.32562 1.15625,-4.34375 0.12266,-2.20796 -0.86837,-4.45706 -2.125,-5.8125 -1.25663,-1.35544 -2.60505,-2.04604 -3.875,-2.53125 -2.53989,-0.97042 -4.56925,-1.2715 -7.09375,-0.8125 -0.0362,0.007 -0.18148,0.0247 -0.21875,0.0312 0.84402,-1.46332 1.62109,-2.635 2.40625,-4.15625 1.99718,-3.86952 2.15884,-8.15285 0.625,-11.6875 -1.53384,-3.53465 -5.06308,-6.42151 -9.3125,-6.625 -0.59472,-0.0285 -1.16408,0.005 -1.6875,0.0625 -1.20864,0.13429 -2.78348,0.41048 -4.09375,0.625 1.66269,-2.7538 3.27731,-5.66836 4.21875,-8.375 1.35047,-3.88261 0.24803,-8.23613 -2.4375,-11.125 -2.52724,-2.71859 -6.34911,-4.18262 -10.5625,-4.15625 0.0333,-0.0465 0.0606,-0.0785 0.0937,-0.125 1.06093,-1.48631 2.04176,-2.95441 2.875,-4.34375 0.83324,-1.38934 1.56271,-2.42805 2,-4.46875 0.88733,-4.14084 -1.07997,-8.59925 -3.9375,-10.65625 -2.85753,-2.057 -5.9871,-2.53894 -8.90625,-2.40625 -1.66868,0.0759 -3.72253,0.42288 -5.75,0.78125 1.5426,-3.31847 3.04855,-6.36915 4.03125,-8.78125 1.40586,-3.45073 1.38351,-7.78721 -1,-10.6875 -2.38351,-2.90029 -5.67753,-3.73 -8.78125,-3.96875 -0.53164,-0.0409 -1.20554,-0.0937 -2.0625,-0.0937 -0.84628,0 -1.70449,0.20146 -2.53125,0.28125 1.24825,-1.3072 2.44814,-2.66587 3.40625,-4.15625 2.54785,-3.96333 2.25849,-9.19279 0.0625,-12.5625 -2.09544,-3.21541 -5.26464,-5.12305 -8.71875,-6.25 2.45118,-1.31247 4.60365,-2.65244 6.0625,-3.625 2.17711,-1.45141 4.12396,-3.2936 5.03125,-6.03125 0.90729,-2.73765 0.20816,-5.89147 -1.1875,-8.0625 -0.92222,-1.43458 -2.28943,-3.21926 -3.96875,-5.09375 0.70307,-1.71035 1.41396,-3.41806 2.09375,-5.1875 1.50646,-0.64216 3.21012,-1.38754 3.875,-1.625 2.84728,-1.01689 4.81049,-2.96752 6.0625,-5.59375 1.25201,-2.62623 1.44847,-6.53232 -0.65625,-9.59375 -0.47832,-0.69574 -0.97838,-1.27283 -1.5,-1.78125 1.71434,-1.1657 3.49266,-2.33675 4.9375,-3.34375 1.47766,-1.02988 2.74591,-2.20973 3.625,-3.875 0.87909,-1.66527 1.07863,-3.87716 0.625,-5.53125 -0.90727,-3.30819 -2.8514,-4.50274 -3.5625,-5.15625 -0.88314,-0.81161 -1.81082,-1.37658 -2.71875,-1.96875 0.91385,-0.83866 1.75782,-1.58496 2.65625,-2.46875 1.80254,-1.77318 3.2743,-2.92361 4.59375,-5.5625 1.62877,-3.25754 0.3566,-7.55264 -1.625,-9.59375 -1.9816,-2.04111 -4.25894,-3.00056 -6.65625,-3.5 -0.48938,-0.10196 -0.94307,-0.0736 -1.40625,-0.125 0.33875,-1.24992 0.61425,-2.56761 0.65625,-4.09375 a 5.2005985,5.2005985 0 0 0 0,-0.0312 c 0.003,-0.12217 8e-5,-0.0226 0,-0.0312 2.6e-4,-0.0105 -2.3e-4,-0.0207 0,-0.0312 0.0104,-0.48623 0.0152,-0.98441 -0.0312,-1.4375 -0.10749,-1.04079 -0.38519,-2.19906 -1.0625,-3.40625 -0.19475,-0.34711 -0.39017,-0.72675 -0.6875,-1.15625 a 5.2005985,5.2005985 0 0 0 -0.0625,-0.0625 c -0.22638,-0.31562 -0.19794,-0.27054 -0.1875,-0.25 -0.4511,-0.59646 -0.0885,-0.13727 -0.0625,-0.0937 0.0203,0.0341 -0.39975,-0.48406 -0.0625,-0.0625 A 5.2005985,5.2005985 0 0 0 310.125,133.5 c -0.0896,-0.11051 -0.29019,-0.36841 -0.6875,-0.75 -0.0252,-0.024 -0.0371,-0.0391 -0.0625,-0.0625 -0.79111,-0.7288 -1.7039,-1.18373 -2.28125,-1.40625 a 5.2005985,5.2005985 0 0 0 -0.0312,-0.0312 c -0.59322,-0.22505 -0.82247,-0.2249 -0.6875,-0.1875 1.19945,0.33132 0.95477,0.14265 -0.4375,-0.15625 a 5.2005985,5.2005985 0 0 0 -0.0312,0 c -0.17673,-0.0365 -0.0799,0.0212 -0.21875,0 -0.0211,-0.003 -0.011,-0.0283 -0.0312,-0.0312 -1.8715,-0.34283 -2.9375,-0.22177 -5.34375,-0.40625 -0.61083,-0.0468 -1.14377,0.0379 -1.71875,0.0625 0.20905,-1.78343 0.4736,-3.48916 0.4375,-5.46875 0.003,0.16938 0.005,0.11808 0,-0.125 -0.0283,-1.33302 -0.10452,-2.70359 -0.3125,-4.09375 -0.24099,-1.61083 -1.00557,-3.48773 -2.53125,-4.8125 -1.52568,-1.32477 -3.43332,-1.73278 -4.84375,-1.75 z m -166.75,166.1875 c 0.42152,0.4813 0.72256,0.85055 1.125,1.3125 -0.64519,0.12673 -1.37023,0.3281 -2.09375,0.53125 0.3251,-0.6146 0.72503,-1.16547 0.96875,-1.84375 z M 293.375,469.90625 c 6.92842,0.3271 13.79271,0.72693 20.78125,1.5625 1.26434,0.15499 2.50787,0.32828 3.75,0.5 0.0631,0.009 0.1245,0.0224 0.1875,0.0312 0.23823,1.18785 0.68356,2.81445 0.65625,3.25 -0.0592,0.94417 -0.13762,1.9302 -0.25,2.96875 -0.0186,0.17404 -0.042,0.3539 -0.0625,0.53125 -0.10144,0.87322 -0.21071,1.72092 -0.34375,2.5625 -1.20191,7.60317 -4.23901,14.50437 -8.21875,16.625 -9.51259,5.06885 -23.82355,8.11526 -35.5625,9.65625 -10.03534,1.31735 -16.95152,1.56246 -19.09375,1.625 -1.00503,-0.82653 -2.10575,-1.75925 -4.78125,-3.59375 -2.35791,-1.61674 -4.86516,-3.37134 -7.78125,-4.53125 9.058,-1.27206 18.62738,-2.06175 27.78125,-2.90625 2.32796,-0.21477 6.79337,0.33209 11.03125,0.71875 2.11894,0.19333 4.21467,0.37106 6.375,0.15625 2.16033,-0.21481 4.89901,-0.75622 6.9375,-3.40625 1.24913,-1.62387 3.24546,-3.99647 3.8125,-7.625 0.56704,-3.62853 -0.53377,-7.58436 -3.09375,-12.03125 -0.38146,-0.66264 -1.34883,-3.90143 -2.125,-6.09375 z m 90.375,22.8125 c 1.303,0.34218 2.11476,0.18893 2.125,0.1875 0.0103,-0.001 -0.73174,0.2396 -2.125,-0.15625 l 0,-0.0312 z" />
<path
style="fill:#217844;fill-opacity:1;stroke:none"
d="m 308.96875,149.15625 c -3.58683,-0.0533 -8.1875,0.375 -8.1875,0.375 l 4.65625,16.6875 c 0,0 9.86104,-8.34708 11.25,-11.125 1.38896,-2.77792 -1.65704,-5.05615 -4.6875,-5.6875 -0.75761,-0.15784 -1.83564,-0.23224 -3.03125,-0.25 z m -5.28125,17.5625 -3.09375,19.1875 C 300.36091,185.84734 300,185.75 300,185.75 l -4.09375,15.71875 c 0,0 7.125,-3.20089 9.625,-4.09375 2.5,-0.89286 4.83928,-4.4866 2.875,-7.34375 -1.51855,-2.20879 -5.64687,-3.53002 -7.46875,-4.03125 0.67636,-0.45446 8.23181,-5.53373 12.21875,-8.3125 4.16688,-2.90419 1.70582,-4.98472 0.125,-6.4375 -2.99978,-2.75682 -4.16418,-2.76349 -9.59375,-4.53125 z M 292.84375,208.25 c 0,0 -13.39285,22.33482 -8.75,22.15625 4.64286,-0.17858 11.25446,-4.29465 14.46875,-6.4375 3.21429,-2.14286 3.95089,-4.46875 2.34375,-6.96875 -1.60714,-2.5 -3.59821,-5.35714 -8.0625,-8.75 z m -5,27.5 c -1.80882,0.004 -3.83482,0.27232 -6.78125,0.71875 l 5.1875,23.5625 c 0,0 10.19196,-7.125 13.40625,-12.125 3.21428,-5 -0.89285,-9.64285 -6.25,-11.25 -2.13971,-0.64191 -3.75368,-0.91048 -5.5625,-0.90625 z m 15.3125,24.03125 c -3.80371,0 -7.1875,1.09375 -16.5625,3.28125 l 14.9375,22.3125 c -0.2404,0.0549 -0.8125,0.1875 -0.8125,0.1875 l 11.5625,20.5 c -0.30763,0.0535 -1.375,0.21875 -1.375,0.21875 l 13.375,21.4375 c 0,0 6.97768,-10.70536 8.40625,-14.8125 1.42857,-4.10714 -2.10241,-8.74363 -8.59375,-8.40625 -3.64414,0.1894 -8.79794,1.05979 -11.1875,1.46875 1.14712,-1.40131 10.84931,-13.32804 11.5625,-16.65625 1.07144,-5 -3.57143,-6.95982 -7.5,-6.78125 -3.28977,0.14953 -12.0719,2.09448 -14.96875,2.75 0.38445,-0.81227 6.28556,-13.23784 8.1875,-17.90625 1.96429,-4.82143 -0.73215,-7.14286 -5.375,-7.5 -0.58036,-0.0446 -1.11286,-0.0937 -1.65625,-0.0937 z m 35.75,67.71875 c -0.28769,-0.0138 -0.57366,-0.002 -0.875,0.0312 -3.37677,0.37519 -8.02232,1.43303 -14.09375,1.96875 l 11.15625,22.125 c -0.0382,0.006 -0.0552,0.0248 -0.0937,0.0312 l 10.34375,19.46875 c 0,0 8.04018,-14.28571 8.21875,-17.5 0.17857,-3.21428 -5.00446,-4.10714 -6.96875,-3.75 -1.93134,0.35115 -4.08227,0.5247 -11.28125,1.71875 0.2265,-0.35203 5.11412,-7.93399 7.90625,-13.34375 2.67858,-5.18973 0.003,-10.54335 -4.3125,-10.75 z m 18.875,42.15625 c -0.26838,-0.005 -0.53348,0.009 -0.8125,0.0312 -2.69367,0.2155 -7.14286,1.05357 -13.75,2.125 l 12.125,21.09375 c 0,0 6.29633,-12.04189 7.6875,-15.90625 1.50669,-4.18526 -1.2243,-7.26855 -5.25,-7.34375 z M 361.375,392.375 c -1.61593,-0.048 -3.6116,0.24553 -7.09375,1.40625 L 363.9375,413.25 c 0,0 7.98267,-9.64437 8.90625,-12.3125 1.60713,-4.64286 -1.48029,-7.23069 -6.59375,-7.875 -2.01841,-0.25432 -3.25907,-0.63947 -4.875,-0.6875 z m 12.90625,18.90625 c -3.74061,0.0184 -5,2.50446 -11.25,4.46875 l 10.375,19.65625 c 0,0 5.61675,-13.79014 6.0625,-15.375 1.60714,-5.71428 -0.55501,-8.7728 -5.1875,-8.75 z m 14.96875,19.6875 c -1.11738,0.006 -2.45536,0.36161 -3.90625,1.03125 -2.87305,1.32602 -6.24108,3.39286 -12.3125,7.5 l 16.0625,14.8125 c 0,0 4.125,-12.84465 4.125,-17.3125 0,-4.29688 -1.51051,-6.0442 -3.96875,-6.03125 z m 16.3125,17.65625 c -0.53101,0.0267 -1.03348,0.14286 -1.46875,0.34375 -2.32142,1.07143 -3.74554,3.04018 -11.78125,6.96875 0,0 16.25893,9.99554 17.6875,10.53125 1.42857,0.53572 0.35267,-12.66965 0.53125,-14.8125 0.14509,-1.74107 -2.66772,-3.14686 -4.96875,-3.03125 z m 20.15625,11.1875 c -1.29464,-0.0893 -2.76786,0.39285 -3.75,0.75 -1.96429,0.71428 -0.54465,-0.52679 -8.9375,6.4375 -0.44279,1.77107 12.95868,5.43706 15.375,6.78125 0,0 0.53571,-7.32143 0,-11.25 -0.26786,-1.96429 -1.39286,-2.62946 -2.6875,-2.71875 z m 11.59375,8.59375 c -0.69083,0.007 -1.31108,0.23499 -1.78125,0.75 -2.04817,2.24351 -2.68303,2.14286 -5.71875,6.25 l 16.25,3.03125 c 0,0 -2.14732,-3.75 -3.21875,-6.25 -0.80357,-1.875 -3.45875,-3.80309 -5.53125,-3.78125 z"
id="path3275"
inkscape:connector-curvature="0" />
<path
style="fill:#5fd38d;fill-opacity:1;stroke:none"
d="m 289.59811,140.10836 c 0,0 5.01518,-4.86332 10.30146,-4.45805 5.28627,0.40528 5.53532,-0.18718 6.77727,2.02639 1.78129,3.1748 -2.43981,11.48284 -2.43981,11.48284 z"
id="path3236"
inkscape:connector-curvature="0"
sodipodi:nodetypes="csscc" />
<path
style="fill:#2ca05a;fill-opacity:1;stroke:none"
d="m 259.86174,452.83665 c 0,0 5.32144,12.31123 1.51523,16.92005 -7.39382,8.95293 -40.4061,16.16244 -48.73986,15.65737 l -45.73479,15.00435 c -1.01015,5.3033 -3.25761,8.22915 7.85407,7.97661 11.11168,-0.25253 18.68782,-4.29314 18.68782,-4.29314 0,0 3.53553,-2.52538 6.06092,-1.01015 2.52538,1.51523 10.21942,1.30726 18.68782,-1.76777 14.93578,-5.42345 34.3653,-6.72804 51.77032,-8.33376 6.87556,-0.63431 18.18274,2.77792 20.70813,-0.50508 2.52538,-3.28299 4.79956,-6.13412 0.33919,-13.88216 -3.17561,-5.5163 -7.91534,-24.75617 -7.91534,-24.75617 z"
id="path3213"
inkscape:connector-curvature="0"
sodipodi:nodetypes="csccscssssscc" />
<path
style="fill:#217844;fill-opacity:1;stroke:none"
d="m 145.78125,281.90625 c -2.42496,0.0352 -4.34375,0.46875 -4.34375,0.46875 l -12.875,5 c 0,0 0.32834,9.63973 2.34375,14.875 -3.07589,4.17845 -2.37562,3.22042 -4.46429,9.03571 7.34121,-0.46798 17.80588,-8.09511 23.55804,-6.41071 7.16385,2.38037 10.92524,10.88612 17.84375,13.90625 8.17926,3.57048 26.4375,4.28125 26.4375,4.28125 l 0,-15.6875 c 0,0 -11.52702,3.91777 -17.125,2.5 -9.07079,-2.29731 -18.75291,-1.93789 -20.90625,-17.6875 -0.51421,-3.76097 -1.22795,-6.80103 -3.15625,-8.375 -1.96146,-1.60104 -4.88754,-1.94141 -7.3125,-1.90625 z"
id="path3172"
inkscape:connector-curvature="0"
sodipodi:nodetypes="scccccsccssss" />
<path
style="fill:#008000;fill-opacity:1;stroke:none"
d="m 116.07143,260.93361 c 4.82143,8.39286 14.33571,17.57834 18.92857,23.75 11.42857,15.35714 9.28571,33.66072 8.75,45.53572 l 1.96429,4.64285 c 1.07143,-12.23214 3.57142,-35.98214 -8.39286,-51.33928 C 133.81987,279.02836 122.5,260.3979 122.5,260.3979 z"
id="path3211"
inkscape:connector-curvature="0"
sodipodi:nodetypes="csccscc" />
<path
style="fill:#8B2323;fill-opacity:1;stroke:none"
d="m 132.375,238.1875 c -1.76544,0.0462 -3.95863,0.79001 -6.125,2.5625 -4.65047,3.80493 -4.52154,6.28905 -5.3125,9.53125 -1.23936,-4.06347 -2.12419,-6.71479 -4.6875,-8.28125 -3.21429,-1.96429 -8.92857,-3.20535 -12.5,1.4375 -1.82511,2.37264 -1.41964,6.97322 1.4375,8.9375 0.4562,0.31364 1.06825,0.65675 1.75,1.03125 -0.91486,-0.30084 -1.80281,-0.60068 -2.65625,-0.875 -4.999996,-1.60714 -11.910401,-0.26624 -13.75,4.84375 -1.607142,4.46428 3.22321,5.53125 10.1875,5.53125 2.53247,0 4.82168,-0.29562 6.71875,-0.65625 -6.27708,2.94341 -11.15071,6.9098 -11.71875,9.75 -0.714286,3.57143 -2.321429,10 3.75,7.5 2.89638,-1.19263 6.70522,-4.20909 9.875,-7.25 -0.77958,2.65277 -1.04263,4.80674 -0.78125,6.375 0.53571,3.21429 1.42857,5.69197 5,5.15625 3.57143,-0.53571 6.34873,-2.60421 6.96875,-8.75 0.0893,-0.88508 0.12862,-2.59006 0.15625,-4.46875 0.18327,2.38515 3.89511,3.91669 8.0625,3.75 4.46429,-0.17857 7.85268,-5.6875 6.78125,-8.1875 -0.82618,-1.92776 -2.83039,-4.09127 -6.15625,-5.625 2.58635,0.0675 5.81288,0.11872 8.46875,-0.0937 4.46429,-0.35714 12.19555,-2.3629 12.15625,-6.09375 -0.0313,-2.97186 -1.61161,-6.04464 -8.21875,-5.6875 -3.70594,0.20032 -7.66952,0.8995 -11.90625,3.28125 1.85158,-2.03772 3.09546,-3.36589 4.78125,-5.25 3.03571,-3.39285 2.12946,-6.80357 0.34375,-7.875 -0.66964,-0.40179 -1.56573,-0.62147 -2.625,-0.59375 z m -10.75,15.6875 4.4375,2.25 c 0,0 0.59565,-0.65226 0.65625,-0.71875 l -0.625,3.90625 c -0.01,-0.003 -0.0213,0.003 -0.0312,0 l -5.34375,2.3125 c -4e-5,-0.004 0,-0.15625 0,-0.15625 L 115,262.03125 c -0.33151,-2.27391 -0.33264,-1.46741 -1.875,-1.6875 l 2.21875,-2.90625 c 0.5531,0.24123 1.09375,0.46875 1.09375,0.46875 l 5.1875,-4.03125 z m -0.90625,13.78125 c 0.067,0.87891 0.0893,1.70536 0,2.375 -0.0154,0.1153 -0.0315,0.23185 -0.0312,0.34375 0.0124,-0.89433 0.0274,-1.80355 0.0312,-2.71875 z"
id="path3208"
inkscape:connector-curvature="0" />
<path
style="fill:#217844;fill-opacity:1;stroke:none"
d="m 303.80306,135.88287 c -0.0533,0.29897 0.22991,0.77145 -1.04809,1.03848 -1.5894,0.3321 -2.67504,-1.73691 -12.23605,3.74253 l 13.72023,8.49214 c 0,0 4.23013,-8.29293 2.44885,-11.46773 -0.81114,-1.4457 -1.24096,-1.69387 -2.88494,-1.80542 z"
id="path3238"
inkscape:connector-curvature="0"
sodipodi:nodetypes="csccsc" />
<path
style="fill:#afe9af;fill-opacity:1;stroke:none"
d="m 276.5625,139.78125 c -8.94862,-0.0173 -17.19983,1.00326 -26.90625,4.3125 -7.07279,2.41135 -14.72591,8.03574 -21.8125,10.40625 -4.08936,1.36792 -9.73692,-1.55276 -12.84375,1.4375 -3.46931,3.33914 1.56198,11.22173 -2.15625,14.28125 -14.72872,12.11944 -34.35941,29.88616 -33.5625,30 0,0 -9.07238,1.97908 -12.5625,5.09375 -6.86168,6.12354 -11.57043,14.62581 -10,23.6875 0.80702,4.65664 5.34489,7.51559 8.28125,11.21875 5.29669,6.67988 7.95378,15.92015 15,20.71875 7.11187,4.8433 26.0625,3.21875 26.0625,3.21875 0,0 -9.97092,28.42677 -16.0625,44.46875 -3.86368,1.00288 -9.44061,2.11189 -12.84375,1.25 -4.37949,-1.10917 -8.9079,-1.61115 -12.65625,-3.59375 -1.43572,7.40155 0.96978,9.66943 5.46875,11.9375 4.18631,2.11045 10.25141,2.91295 15.34375,3.21875 -30.88979,92.74465 20.9427,133.65207 57.0625,139.40625 29.74909,4.73927 53.15332,2.20112 80.03125,6.53125 0.93053,2.86014 1.67327,5.92281 1.53125,8.1875 -0.61245,9.76628 -3.31906,22.54287 -11.625,26.96875 -21.19875,11.29591 -58.75,11.96875 -58.75,11.96875 0,0 -10.69196,-9.1116 -16.40625,-9.46875 -5.71428,-0.35714 -12.52678,7.14286 -16.8125,12.5 -3.81243,4.76553 -6.06697,12.50893 -1.78125,16.4375 4.28571,3.92857 16.09375,1.25 16.09375,1.25 3.82,6.32151 9.14713,7.47774 15.34375,5.71875 7.07452,7.08852 13.29,4.91428 18.9375,-3.21875 6.2105,4.05953 13.42968,0.65207 21.0625,-5.71875 5.58708,-4.66332 28.20982,-11.42411 36.78125,-11.78125 8.57143,-0.35714 21.36098,-2.9193 23.21875,-5 4.46428,-4.99999 -1.22728,-11.66301 -3.5625,-17.84375 -2.39423,-6.33695 -3.34509,-16.61567 -3.71875,-24.9375 L 286.99651,268.89023 c -8.23508,-13.4175 -8.05565,-32.57515 -0.31837,-48.67148 7.76445,-16.15286 21.15061,-40.18395 21.38436,-58.28125 0.1151,-8.91118 -3.90865,-20.77838 -22.21875,-21.84375 -3.21681,-0.18717 -6.29838,-0.30674 -9.28125,-0.3125 z"
id="path3188"
inkscape:connector-curvature="0"
sodipodi:nodetypes="ssssscssssccscscscsscssscccssssccssss" />
<path
style="fill:#2ca05a;fill-opacity:1;stroke:none"
d="m 218.28125,33.125 c -5.96622,4.54184 -13.3115,5.39187 -16.71875,11.375 -1.6561,2.9081 0.20854,6.83367 -0.875,10 -2.42709,7.09243 -12.15625,18.9375 -12.15625,18.9375 0,0 -2.73697,2.09659 -1.40625,4.46875 4.10714,7.32143 -3.9375,15.1875 -3.9375,15.1875 L 173,99.6875 l -6.78125,25.71875 6.24554,15.66071 c 5.95179,19.91271 0.092,46.02577 -1.71429,52.15179 -1.76401,5.98259 6.03073,10.992 9.9375,17 4.89951,7.53469 1.3973,23.63331 0.6875,32.5625 -2.20532,2.27755 -9.28905,8.14645 -10.53125,11.5625 -1.42857,3.92858 -3.20535,14.61608 -1.0625,18.1875 2.14286,3.57143 4.99554,8.25447 8.03125,7.71875 3.03572,-0.53571 3.59375,-3.0625 3.59375,-3.0625 0,0 2.32589,2.49553 4.46875,3.03125 2.14285,0.53571 4.47049,0.21486 6.25,-0.90625 1.26899,-0.79948 2.5,-3.71875 2.5,-3.71875 0,0 2.11607,0.5134 4.4375,-1.09375 1.76549,-1.22226 1.34741,-6.72925 3.21875,-9.5 3.09069,-4.57616 8.81501,-9.43557 12.56932,-10.7914 5.30112,-1.91444 15.10479,-4.69074 12.96193,3.1664 -2.14286,7.85715 -7.04701,3.55725 -13.21875,26.40625 -5.13877,19.02471 1.0906,19.54818 -6.78125,36.4375 -2.07176,4.44503 -10.32135,3.89426 -15.13008,1.59296 -0.0704,6.39415 9.19876,25.21431 30.31758,28.93829 5.73059,1.01049 8.90246,1.46757 14.375,2.34375 0.93053,2.86014 1.67327,5.92281 1.53125,8.1875 0.20371,5.52932 8.85894,5.82312 13.78125,2.75 2.08099,5.93266 3.71875,11.5072 3.71875,15.46875 0,8.57143 -6.78125,10 -6.78125,10 0,0 2.84375,5.37947 0.34375,8.59375 -2.5,3.21429 -39.28125,12.125 -39.28125,12.125 0,0 -6.78125,7.125 -14.28125,9.625 C 192.00165,421.31195 182.125,419.5 182.125,419.5 c 0,0 3.18304,5.375 -5.03125,7.875 -4.17109,1.63235 -6.46371,1.16466 -9.34375,-1.6875 -1.8385,-1.83851 0.016,-6.56583 1.53125,-9.34375 -2.82671,-0.008 -3.70119,2.22754 -5.5625,6.8125 0,0 -3.28966,1.52871 -5.5625,1.78125 -2.27285,0.25254 -6.05996,-3.28791 -6.3125,-8.84375 -0.25254,-5.55583 9.59375,-9.59375 9.59375,-9.59375 0,0 -1.00279,-2.47834 -2.25,-2.28125 -6.01678,0.95082 -9.65652,9.57568 -10.625,12.125 -1.94672,5.12435 -11.20317,7.00386 -17.3125,-1.8125 0.12453,1.98848 0.80018,3.79861 2.28125,5.15625 4.28571,3.92857 16.09375,1.25 16.09375,1.25 3.82,6.32151 9.14713,7.47774 15.34375,5.71875 1.13417,1.13641 1.50359,1.56101 3.34375,2.6875 6.27322,3.84029 12.39871,-0.036 15.59375,-5.90625 6.2105,4.05953 13.42968,0.65207 21.0625,-5.71875 5.58708,-4.66332 28.20982,-11.42411 36.78125,-11.78125 8.57143,-0.35714 21.36098,-2.9193 23.21875,-5 4.46428,-4.99999 -1.22728,-11.66301 -3.5625,-17.84375 -2.39423,-6.33695 -3.34509,-16.61567 -3.71875,-24.9375 24.51155,5.67228 79.90655,16.31504 108.28125,8.15625 4.01016,-5.03009 -10.99903,-3.34042 -16,-6.09375 -22.9431,-12.63152 -53.05346,-22.8332 -62.84375,-47.125 -15.65573,-38.38114 -28.76387,-65.25938 -42.77438,-98.22146 -10.25503,-24.1138 -38.18609,-58.5076 -42.66307,-79.99709 -0.003,-0.0202 0.003,-0.0423 0,-0.0625 -1.59813,-9.37163 -0.56022,-19.38811 4,-28.875 7.76445,-16.15286 17.11,-40.18395 17.34375,-58.28125 0.0606,-4.69148 -1.03266,-10.21176 -4.75,-14.53125 z"
transform="translate(85.040147,114.28027)"
id="path3284"
inkscape:connector-curvature="0"
sodipodi:nodetypes="csscsccccsscssscsscsasssscscccscscscccccsscsscsccscssssccsccccsscc" />
<path
style="fill:#217844;fill-opacity:1;stroke:none"
d="M 219.65625,38.75 C 214.95781,51.400941 215.8978,66.260359 209.5,85.15625 205.12898,88.35176 200,94.875 200,94.875 c -9.59638,8.66897 -20.05859,6.5638 -30.28125,8.34375 l 0,20.21875 -29.3125,15.15625 -26.75,6.03125 L 112,150.09375 c 4.99248,0.0959 9.03125,-0.21875 9.03125,-0.21875 0,0 -2.58484,7.32849 -5.90625,16.625 10.25097,0.12938 24.14136,-1.94955 28.3125,-3.6875 6.06091,-2.52538 16.44416,-12.17735 22,-13.1875 5.55584,-1.01015 13.81142,-9.28017 18.15625,-13.625 1.58381,-1.58381 5.62338,-8.51118 10.1875,-16.875 -0.17639,0.77334 -0.33799,1.5568 -0.4375,2.34375 -1.10492,8.7377 7.65097,25.54389 10.97768,31.64286 8.60104,15.76856 26.12071,50.61254 32.67857,67.58482 3.33438,8.62963 6.08206,15.48064 8.40625,24.52232 12.4145,3.8702 30.44185,45.58538 31.96875,73.96875 0,0 3.25994,-17.55965 1.4375,-22.0625 -15.12349,-37.36675 -29.22223,-68.48545 -38.03125,-86.25 -8.11535,-16.36566 -27.45818,-46.9025 -36,-62.5625 -2.51051,-4.60261 -6.23914,-20.80864 -5.1875,-29.125 1.59553,-9.09024 14.594,-32.47135 19.96875,-54.0625 2.80218,-11.25676 1.20221,-19.42017 0.0937,-26.375 z"
transform="translate(85.040147,114.28027)"
id="path3375"
inkscape:connector-curvature="0"
sodipodi:nodetypes="ccccccccccssscsssccssscsc" />
<path
style="fill:#0b2817;fill-opacity:1;stroke:none"
d="m 262.5,193.25503 c 5.71428,4.46429 6.78571,5.17858 5.89286,13.03573 -0.36793,3.23778 -3.03572,5.5357 -1.25,7.14285 1.78571,1.60714 7.59996,0.21021 11.60714,-2.32143 16.88615,-10.66828 14.31941,-35.80255 14.10714,-35.71428 0,0 2.6259,18.874 -1.42857,26.96428 -3.70784,7.39863 -8.39286,11.25 -18.21428,14.64286 -9.82143,3.39286 -19.64286,10.53571 -19.64286,10.53571 l 8.75,-21.60714 3.21428,-2.85714 c -0.17857,-6.60714 -4.64286,-8.03572 -3.03571,-9.82144 z"
id="path3161"
inkscape:connector-curvature="0"
sodipodi:nodetypes="cssscsscccc" />
<path
style="fill:#2ca05a;fill-opacity:1;stroke:none"
d="m 265.57588,200.25894 c 0,0 -16.10713,15.12945 -23.60713,24.77231 3.21429,-0.17857 3.01339,0.54465 5.15625,1.4375 7.11661,2.96524 2.41998,10.54621 -1.21875,12.875 -1.12728,0.72146 -2.14941,1.30427 -3.09375,1.78125 -5.41321,0.64543 -6.77084,-3.65749 -8.34375,-7.15625 -0.25828,-1.58398 -2.12413,-3.1593 -3.91964,-0.35714 -2.01043,3.13756 0.47028,5.72392 0.15625,8.22768 -0.39754,3.16955 -6.76786,-6.27679 -6.76786,-6.27679 0,0 -34.66518,14.30803 -43.59375,13.59375 -4.29726,-0.34378 -8.88612,-2.60563 -12.53125,-4.84375 3.66903,5.98121 6.49528,12.7485 12.1875,16.625 7.11187,4.8433 26.0625,3.21875 26.0625,3.21875 15.72967,-1.30716 20.53177,-9.35202 25,-11.78125 6.52325,-3.54648 18.07011,-6.08755 23.21875,-11.4375 6.28357,-6.52926 3.38976,-15.76718 5.375,-23.21875 1.54247,-5.78959 6.84375,-11.90625 6.84375,-11.90625 0.26696,-1.39148 0.32652,-3.49059 -0.92412,-5.55356 z"
id="path3158"
inkscape:connector-curvature="0"
sodipodi:nodetypes="ccssccsscscscssscc" />
<path
style="fill:#000000;stroke:none"
d="m 241.07142,169.50504 c 0.27261,2.89351 2.81554,2.29038 5.71429,2.5 2.77196,0.20045 5.69327,-3.29231 5.71429,-6.07143 0.0281,-3.70761 -3.83879,-8.79973 -7.5,-8.21429 -2.57817,0.41226 -4.17347,9.18631 -3.92858,11.78572 z"
id="path3136"
inkscape:connector-curvature="0"
sodipodi:nodetypes="sssss" />
<path
sodipodi:nodetypes="sssss"
inkscape:connector-curvature="0"
id="path3140"
d="m 211.7461,171.17346 c 0.79221,0.8151 1.82705,-1.299 4.7258,-1.08938 2.77196,0.20046 1.36423,-2.79992 1.38525,-5.57904 0.0281,-3.70761 -0.22404,-7.2845 -3.88525,-6.69906 -2.57817,0.41226 -4.04552,11.49518 -2.2258,13.36748 z"
style="fill:#000000;stroke:none" />
<path
style="fill:#000000;stroke:none"
d="m 236.07143,240.3979 c -3.21429,0 -4.82143,-2.14286 -4.82143,-2.14286 0,0 -0.96353,-5.90127 1.60714,-6.78572 6.19499,-2.13142 7.85714,-1.78571 11.60715,-3.03571 1.93154,-0.64385 3.71122,0.20325 4.28571,2.85714 0.78485,3.62567 -2.24599,4.96193 -3.57143,7.32143 0,0 -0.44937,-3.91562 -1.96429,-4.64286 -2.56508,-1.23138 -7.15305,0.30539 -8.21428,2.32143 -0.65904,1.252 1.07143,4.10715 1.07143,4.10715 z"
id="path3144"
inkscape:connector-curvature="0"
sodipodi:nodetypes="ccssscasc" />
<path
style="fill:#2ca05a;fill-opacity:1;stroke:none"
d="m 215.92011,182.24204 c 3.75909,-2.91213 8.47728,-4.00549 4.41941,0.75761 -10.35194,12.15103 -21.3126,26.89124 -27.52665,40.15356 -1.47938,3.15736 -4.24428,3.58981 -3.283,0.63135 6.55392,-20.17057 16.55358,-33.92217 26.39024,-41.54252 z"
id="path3156"
inkscape:connector-curvature="0"
sodipodi:nodetypes="sssss" />
<path
style="fill:#2ca05a;fill-opacity:1;stroke:none"
d="m 218.78097,157.85044 c 2.52325,3.247 1.50004,5.66639 1.89404,9.21764 2.40523,-3.38707 5.00409,-6.85269 8.83883,-8.9651 -4.97324,-2.69143 -13.13088,-3.33838 -10.73287,-0.25254 z"
id="path3168"
inkscape:connector-curvature="0"
sodipodi:nodetypes="sccs" />
<path
style="fill:#2ca05a;fill-opacity:1;stroke:none"
d="m 251.42857,157.45146 c 2.22483,1.83584 4.08017,6.54992 3.83929,8.66071 2.42058,-2.06831 7.603,-8.03992 6.16071,-8.92856 -2.00921,-1.23794 -9.65462,-1.4026 -10,0.26785 z"
id="path3170"
inkscape:connector-curvature="0"
sodipodi:nodetypes="ccsc" />
<path
style="fill:#afe9af;fill-opacity:1;stroke:#000000"
d="m 145.90625,275.03125 c -3.55565,0.24826 -7.29876,4.72381 -7.34375,8.59375 -0.0279,2.39932 2.09768,4.22328 4.125,4.8125 4.06791,1.1823 11.08112,-2.42776 12.125,-3.75 2.67857,-3.39286 -4.46875,-9.2991 -8.21875,-9.65625 -0.23437,-0.0223 -0.45046,-0.0165 -0.6875,0 z m -13.78125,11.25 c -0.98874,0.0161 -1.91965,0.12054 -2.65625,0.1875 -1.96429,0.17858 -9.64257,1.23472 -8.75,4.65625 0.73499,2.81746 2.72886,3.68609 5.0625,3.90625 -0.59337,0.69222 -1.36015,1.7896 -1.3125,2.875 0.0418,0.95376 3.62431,3.49635 6.0625,3.75 0.062,0.006 0.1254,-0.006 0.1875,0 0.067,0.19847 0.11592,0.40782 0.1875,0.59375 -2.62663,1.06014 -10.18955,2.26249 -10.03125,6.1875 0.0839,2.08073 3.48437,2.71024 5.5625,2.84375 1.37648,-0.0878 2.86181,-0.4237 4.40625,-0.90625 0.0308,-0.01 0.063,-0.0215 0.0937,-0.0312 2.4064,-1.3095 5.03651,-2.81081 6.3125,-3.84375 1.47232,-1.19188 -0.90551,-3.22006 -3.3125,-4.8125 2.29734,-0.17575 4.55651,-0.7567 6.59375,-1.8125 2.30006,-1.192 1.08036,-5.19643 -2.3125,-6.625 -0.26171,-0.11019 -0.84645,-0.13375 -1.53125,-0.125 0.22996,-0.22547 0.44762,-0.46342 0.625,-0.75 0.85508,-1.38146 0.42903,-3.69388 -0.71875,-4.84375 -1.06305,-1.06498 -2.82084,-1.27683 -4.46875,-1.25 z"
id="path3174"
inkscape:connector-curvature="0" />
<path
style="fill:#ffffff;fill-opacity:1;stroke:#000000"
d="m 128.1235,259.78022 c 1.51522,-10.10152 -8.33376,-8.08122 -11.61676,-6.31346 -3.283,1.76777 -9.09137,7.32361 -6.06092,10.35407 3.03046,3.03046 17.02213,0.32971 17.67768,-4.04061 z"
id="path3194"
inkscape:connector-curvature="0"
sodipodi:nodetypes="ssss" />
<path
style="fill:#afe9af;fill-opacity:1;stroke:none"
d="m 249.1875,477.15625 c -12.77017,5.17099 -30.72051,8.60406 -36.5625,8.25 -6.88032,-0.41699 -9.418,-6.25017 -22.46875,-7.3125 -13.05075,-1.06233 -24.73985,16.66545 -25.75,21.96875 -0.71058,3.73053 -0.78558,6.45252 3.09375,7.65625 5.20573,-1.048 12.17728,-1.26819 15.71875,-2.5 8.21428,-2.85714 16.4375,-7.84375 16.4375,-7.84375 0,0 5.23302,3.36359 8.20982,3.56696 10.11037,0.69076 21.753,-6.34482 29.27232,-8.20982 10.91449,-2.70708 9.93988,-5.9381 12.04911,-15.57589 z"
id="path3215"
inkscape:connector-curvature="0"
sodipodi:nodetypes="cssscscasc" />
<path
style="fill:#5fd38d;fill-opacity:1;stroke:none"
d="m 253.29575,146.25535 c 1.6415,-9.97526 4.85674,-14.84188 9.22399,-21.88153 2.93804,-4.73587 7.00362,-4.31818 8.57995,-0.59436 2.59984,6.14171 -0.63135,17.5514 -0.63135,17.5514 -3.78212,1.69746 -10.16456,5.82965 -17.17259,4.92449 z"
id="path3222"
inkscape:connector-curvature="0"
sodipodi:nodetypes="csscc" />
<path
style="fill:#5fd38d;fill-opacity:1;stroke:none"
d="m 268.44804,140.19443 c 0,0 7.53667,-13.09387 13.79396,-16.69181 3.31932,-1.90861 10.58117,-6.899 11.33358,-1.86974 1.35919,9.08509 -2.50846,19.12069 -2.50846,19.12069 -6.86385,-0.81224 -18.99609,2.75864 -22.61908,-0.55914 z"
id="path3229"
inkscape:connector-curvature="0"
sodipodi:nodetypes="cascc" />
<path
style="fill:#2ca05a;fill-opacity:1;stroke:none"
d="m 268.1875,122.375 c -4.18118,1.5901 -11.97284,16.20218 -12.46875,24 6.0318,-0.15397 11.41182,-3.53303 14.75,-5.03125 0,0 3.22484,-11.42079 0.625,-17.5625 -0.44933,-1.43094 -1.90034,-1.7888 -2.90625,-1.40625 z"
id="path3224"
inkscape:connector-curvature="0"
sodipodi:nodetypes="scccs" />
<path
style="fill:#2ca05a;fill-opacity:1;stroke:none"
d="m 292.0625,121.25 c -5.75867,-0.0315 -9.64647,6.46152 -13.625,10.625 -2.43841,2.55177 -5.76385,7.81325 -6.84375,9.5625 5.18866,0.78479 13.99879,-1.33479 19.46875,-0.6875 0,0 3.80674,-9.9473 2.5,-19 -0.51814,-0.29455 -1.01637,-0.49736 -1.5,-0.5 z"
id="path3231"
inkscape:connector-curvature="0" />
<path
sodipodi:type="inkscape:offset"
inkscape:radius="1.0858399"
inkscape:original="M 261.53125 295.21875 C 255.6158 295.0383 255.3716 303.06563 257.5 311.28125 C 257.5 311.28125 266.77678 317.36161 268.5625 322.71875 C 270.34821 328.07589 270.16518 355.75446 266.59375 358.96875 C 263.02232 362.18303 255.56976 367.67619 255.34375 375.5625 C 255.05971 385.47378 257.57383 390.89284 261.96875 391.65625 C 269.03815 392.88424 260.1875 382.90179 261.4375 380.9375 C 263.66873 386.61783 267.75319 391.95962 272.6875 392.71875 C 275.00893 393.07589 275.66561 391.21086 275.90625 389.875 C 276.74969 385.19293 269.83035 384.87053 267.6875 380.40625 C 267.6875 380.40625 276.85319 389.6945 281.4375 387.375 C 283.37592 386.39423 283.16297 383.00628 282.5 380.9375 C 281.36966 377.4103 274.27232 376.29018 274.09375 371.46875 C 273.95012 367.59093 276.71981 358.72719 277.84375 352.375 C 278.70364 347.51517 278.7726 331.38861 276.96875 321.125 C 275.5905 313.28301 274.37287 301.63466 269.46875 298.4375 C 266.11698 296.25237 263.50307 295.2789 261.53125 295.21875 z "
style="fill:#217844;fill-opacity:1;stroke:none"
id="path4163"
d="m 261.5625,294.125 c -1.72433,-0.0526 -3.22264,0.55505 -4.25,1.625 -1.02736,1.06995 -1.58352,2.5139 -1.875,4.15625 -0.58297,3.2847 -0.0883,7.45557 1,11.65625 a 1.0859485,1.0859485 0 0 0 0.46875,0.625 c 0,0 2.26672,1.48619 4.75,3.625 2.48328,2.13881 5.12155,4.98966 5.875,7.25 0.35596,1.06789 0.7301,3.82726 0.90625,7.1875 0.17615,3.36024 0.19595,7.41015 0.0625,11.375 -0.13345,3.96485 -0.42578,7.84587 -0.90625,10.90625 -0.24023,1.53019 -0.52704,2.85212 -0.84375,3.84375 -0.31671,0.99163 -0.71484,1.63711 -0.875,1.78125 -3.47037,3.12333 -11.37982,8.81989 -11.625,17.375 -0.14481,5.053 0.4184,9.02369 1.65625,11.9375 1.23785,2.91381 3.28511,4.80013 5.875,5.25 0.98706,0.17146 1.77484,0.2018 2.5,-0.0625 0.72516,-0.2643 1.31027,-0.94094 1.46875,-1.625 0.0966,-0.41694 -0.0169,-0.81685 -0.0625,-1.21875 1.95179,2.0437 4.22577,3.56598 6.84375,3.96875 1.45668,0.2241 2.68823,-0.3218 3.375,-1.15625 0.68677,-0.83445 0.92726,-1.81174 1.0625,-2.5625 0.11653,-0.6469 0.0836,-1.24137 -0.0312,-1.8125 0.0212,0.008 0.0413,0.0236 0.0625,0.0312 1.65322,0.59865 3.40087,0.83998 4.9375,0.0625 1.43292,-0.72501 1.97058,-2.26294 2.09375,-3.6875 0.12317,-1.42456 -0.12626,-2.89624 -0.5,-4.0625 -0.75654,-2.36075 -3.08192,-3.52381 -4.96875,-4.8125 -0.94341,-0.64435 -1.8106,-1.29501 -2.40625,-2 -0.59565,-0.70499 -0.9339,-1.40269 -0.96875,-2.34375 -0.0611,-1.65034 0.56389,-4.86558 1.375,-8.34375 0.81111,-3.47817 1.77022,-7.28979 2.34375,-10.53125 0.46498,-2.62792 0.69517,-7.85115 0.59375,-13.8125 -0.10142,-5.96135 -0.54963,-12.58288 -1.46875,-17.8125 -0.6827,-3.88441 -1.32486,-8.77394 -2.4375,-13.15625 -1.11264,-4.38231 -2.60825,-8.3444 -5.53125,-10.25 -3.44453,-2.2456 -6.20053,-3.33611 -8.5,-3.40625 z"
transform="translate(2.0292787,0.75625516)" />
<path
style="fill:#afe9af;fill-opacity:1;stroke:none"
d="m 257.5,311.29075 c 0,0 9.28571,6.07143 11.07143,11.42857 1.78571,5.35714 1.60714,33.03572 -1.96429,36.25001 -3.57143,3.21428 -11.02399,8.72083 -11.25,16.60714 -0.28404,9.91128 2.21223,15.30801 6.60715,16.07142 7.0694,1.22799 -1.78572,-8.74999 -0.53572,-10.71428 2.23123,5.68033 6.31569,11.02659 11.25,11.78572 2.32143,0.35714 2.97365,-1.52129 3.21429,-2.85715 0.84344,-4.68207 -6.07143,-5 -8.21428,-9.46428 0,0 9.16568,9.28378 13.74999,6.96428 1.93842,-0.98077 1.7344,-4.35979 1.07143,-6.42857 -1.13034,-3.5272 -8.21428,-4.64285 -8.39285,-9.46428 -0.14363,-3.87782 2.62605,-12.75496 3.74999,-19.10715 0.85989,-4.85983 0.911,-20.98639 -0.89285,-31.25 -1.37825,-7.84199 -2.59589,-19.48141 -7.50001,-22.67857 -13.40707,-8.74052 -14.80214,1.90298 -11.96428,12.85714 z"
id="path3302"
inkscape:connector-curvature="0"
sodipodi:nodetypes="csssscsscssssasc" />
<path
style="fill:#217844;fill-opacity:1;stroke:none"
d="M 273.5 334.28125 C 270.52642 344.93996 265.33016 353.24224 257.75 358.1875 C 278.44112 365.14334 298.33092 375.98636 319.96875 376.65625 C 335.64539 377.14158 360.00301 373.69642 365.9375 366.375 C 361.16538 367.31324 355.97915 367.93927 348.5 367.625 C 317.3371 366.31556 295.47519 349.00827 273.5 334.28125 z "
transform="translate(85.040147,114.28027)"
id="path3380" />
</g>
</svg>
