<?xml version="1.0" encoding="UTF-8" standalone="no"?>
<!-- Created with Inkscape (http://www.inkscape.org/) -->

<svg
   xmlns:dc="http://purl.org/dc/elements/1.1/"
   xmlns:cc="http://creativecommons.org/ns#"
   xmlns:rdf="http://www.w3.org/1999/02/22-rdf-syntax-ns#"
   xmlns:svg="http://www.w3.org/2000/svg"
   xmlns="http://www.w3.org/2000/svg"
   xmlns:xlink="http://www.w3.org/1999/xlink"
   xmlns:sodipodi="http://sodipodi.sourceforge.net/DTD/sodipodi-0.dtd"
   xmlns:inkscape="http://www.inkscape.org/namespaces/inkscape"
   width="1052.3622"
   height="744.09448"
   id="svg2"
   version="1.1"
   inkscape:version="0.48.1 r9760"
   sodipodi:docname="sdssss.svg">
  <defs
     id="defs4">
    <linearGradient
       inkscape:collect="always"
       id="linearGradient5193">
      <stop
         style="stop-color:#48373e;stop-opacity:1;"
         offset="0"
         id="stop5195" />
      <stop
         style="stop-color:#48373e;stop-opacity:0;"
         offset="1"
         id="stop5197" />
    </linearGradient>
    <linearGradient
       inkscape:collect="always"
       id="linearGradient5179">
      <stop
         style="stop-color:#48373e;stop-opacity:1;"
         offset="0"
         id="stop5181" />
      <stop
         style="stop-color:#48373e;stop-opacity:0;"
         offset="1"
         id="stop5183" />
    </linearGradient>
    <linearGradient
       gradientTransform="matrix(1,0,0,1.2785123,25.08406,-109.70812)"
       gradientUnits="userSpaceOnUse"
       y2="392.48285"
       x2="717.453"
       y1="487.29105"
       x1="541.11816"
       id="linearGradient4130"
       xlink:href="#linearGradient4124"
       inkscape:collect="always" />
    <linearGradient
       id="linearGradient4124"
       inkscape:collect="always">
      <stop
         id="stop4126"
         offset="0"
         style="stop-color:#ff0000;stop-opacity:1;" />
      <stop
         id="stop4128"
         offset="1"
         style="stop-color:#ff0000;stop-opacity:0;" />
    </linearGradient>
    <linearGradient
       gradientTransform="matrix(1,0,0,1.2785123,25.08406,-109.70812)"
       gradientUnits="userSpaceOnUse"
       y2="392.48285"
       x2="717.453"
       y1="487.29105"
       x1="541.11816"
       id="linearGradient4130-5"
       xlink:href="#linearGradient4124-8"
       inkscape:collect="always" />
    <linearGradient
       id="linearGradient4124-8"
       inkscape:collect="always">
      <stop
         id="stop4126-2"
         offset="0"
         style="stop-color:#ff0000;stop-opacity:1;" />
      <stop
         id="stop4128-4"
         offset="1"
         style="stop-color:#ff0000;stop-opacity:0;" />
    </linearGradient>
    <linearGradient
       inkscape:collect="always"
       xlink:href="#linearGradient5179"
       id="linearGradient5185"
       x1="598.50653"
       y1="409.56802"
       x2="1005.8551"
       y2="386.81113"
       gradientUnits="userSpaceOnUse" />
    <linearGradient
       inkscape:collect="always"
       xlink:href="#linearGradient5193"
       id="linearGradient5199"
       x1="507.47891"
       y1="247.99402"
       x2="-616.71204"
       y2="557.48785"
       gradientUnits="userSpaceOnUse" />
  </defs>
  <sodipodi:namedview
     id="base"
     pagecolor="#ffffff"
     bordercolor="#666666"
     borderopacity="1.0"
     inkscape:pageopacity="0.0"
     inkscape:pageshadow="2"
     inkscape:zoom="0.435"
     inkscape:cx="440.7909"
     inkscape:cy="526.36521"
     inkscape:document-units="px"
     inkscape:current-layer="layer1"
     showgrid="false"
     inkscape:window-width="1365"
     inkscape:window-height="691"
     inkscape:window-x="1"
     inkscape:window-y="24"
     inkscape:window-maximized="1" />
  <metadata
     id="metadata7">
    <rdf:RDF>
      <cc:Work
         rdf:about="">
        <dc:format>image/svg+xml</dc:format>
        <dc:type
           rdf:resource="http://purl.org/dc/dcmitype/StillImage" />
        <dc:title></dc:title>
      </cc:Work>
    </rdf:RDF>
  </metadata>
  <g
     inkscape:label="Layer 1"
     inkscape:groupmode="layer"
     id="layer1"
     transform="translate(0,-308.2677)">
    <path
       style="fill:#000000;fill-rule:nonzero"
       d="m 381.93815,1014.2012 c -12.93218,-6.2231 -27.15792,-18.48738 -32.70627,-28.19673 -2.63448,-4.61019 -6.10278,-27.5702 -8.39051,-55.54472 l -3.89971,-47.68605 -11.63906,5.40426 c -28.12749,13.0602 -77.51025,15.07227 -111.23358,4.53212 -15.61495,-4.8804 -39.39331,-21.4209 -45.29816,-31.50991 -5.77928,-9.87448 -10.88518,-65.48294 -15.51014,-101.04828 l 1.75526,-30.71124 9.66026,56.31832 c 11.94268,69.62461 10.84492,75.12527 34.54204,89.72609 29.74738,18.32866 86.39705,20.99471 120.63496,5.67732 9.46913,-4.23631 18.83326,-7.70238 20.80919,-7.70238 4.40297,0 6.25652,10.48791 8.71536,49.31384 2.96337,46.7929 6.0075,59.77491 16.32576,69.62308 11.54716,11.02108 32.51156,25.08278 54.46681,23.44398 11.73727,-0.8761 27.95606,-0.9962 38.88076,2.5969 l -44.60124,0.2286 c -14.8764,0.1492 -26.13612,-1.397 -32.51173,-4.4651 z m 87.89118,1.7282 c 44.5053,5.8273 69.69973,-29.7016 69.77256,-63.07613 0.01,-4.56928 2.39055,-16.94404 5.29014,-27.49947 6.14101,-22.35508 11.95619,-24.63141 23.01863,-9.01061 25.99748,36.70995 97.06467,45.99942 141.40631,18.48375 6.23858,-3.87125 18.52307,-7.99536 27.29886,-9.16467 8.77579,-1.16931 19.61358,-4.32081 24.08394,-7.0033 13.30724,-7.98516 59.19432,-24.38856 68.22494,-24.38856 12.39861,0 44.08847,-19.37101 52.4895,-32.08513 4.00567,-6.0622 10.74012,-14.87978 14.96547,-19.59464 11.71398,-13.07105 24.46887,-29.89851 25.49251,-50.5551 0.65735,-13.26507 -3.26595,-43.57868 2.39824,-53.50585 l 1.33141,57.92402 c 0.55534,24.1606 0.46869,21.45007 -32.30967,66.24591 -14.56834,19.90953 -40.07795,36.27633 -62.71196,40.2356 -16.26143,2.84451 -44.89915,13.1465 -67.07191,24.1281 -6.50199,3.22026 -16.61509,5.855 -22.4736,5.855 -6.26241,0 -16.84251,3.63258 -25.67487,8.81521 -45.79059,26.86889 -113.4857,22.0843 -146.16115,-10.33044 l -12.83583,-12.73342 -3.34578,13.81339 c -1.84016,7.59738 -4.31583,21.17136 -5.50144,30.16443 -2.53029,19.1927 -7.15898,28.32313 -19.79723,39.05171 -15.79407,13.4075 -28.17181,17.463 -52.14758,17.0861 l -23.52676,-0.2055 c 4.97809,-1.4882 8.57308,-3.8566 17.78527,-2.6504 z m -50.76133,-8.7189 c -18.2393,-2.8229 -37.7759,-11.70288 -48.1864,-21.90238 -7.22525,-7.07881 -8.11965,-11.57466 -12.03399,-60.49087 -2.32574,-29.06403 -5.18657,-59.31863 -6.3574,-67.23241 l -2.12878,-14.38868 -5.83531,8.77415 c -12.66333,19.04099 -42.25298,30.40844 -79.15371,30.40844 -48.35147,0 -80.83226,-17.16936 -84.58415,-44.71123 -18.88689,-138.64453 -16.73739,-184.61376 11.6944,-250.09603 44.92879,-103.4771 134.69483,-159.04973 239.39345,-148.2044 53.28187,5.51926 104.00283,21.17883 151.63475,46.81567 40.52028,21.80914 76.9364,52.2512 71.7264,59.95967 -3.47239,5.13759 -32.82384,4.06067 -37.76699,-1.38569 -7.49009,-8.25258 -21.85942,-13.1821 -38.42525,-13.1821 -12.6985,0 -18.33941,1.67085 -26.28762,7.78641 -16.5354,12.7228 -21.01382,23.50715 -23.30961,56.13129 -1.5735,22.36015 -4.6322,36.18901 -12.33982,55.79044 -13.82045,35.14702 -18.35671,68.94444 -13.98115,104.16705 3.95099,31.80523 13.10339,52.94579 32.66567,75.45261 12.48171,14.36043 55.61257,48.50339 61.27163,48.50339 4.00076,0 73.7814,27.18031 78.36679,30.52472 3.1312,2.28373 3.60935,1.75768 1.96462,-2.16155 -1.24514,-2.96709 -0.40058,-6.182 1.97703,-7.5257 2.61639,-1.47861 -1.1145,-3.13324 -10.09255,-4.47602 -75.28363,-11.25962 -141.30981,-60.31515 -157.45097,-116.98146 -10.08787,-35.41516 -3.7684,-100.69326 13.28335,-137.21328 7.49616,-16.0546 9.07412,-23.85076 9.32676,-46.0802 0.26823,-23.60773 1.36485,-28.40629 9.31832,-40.77839 7.09721,-11.04018 11.76414,-14.77553 21.94542,-17.56484 16.21857,-4.44332 36.40295,0.30114 49.55304,11.64775 8.81796,7.60863 9.39836,7.69011 30.88614,4.33608 17.45333,-2.72429 23.43942,-5.10873 29.48553,-11.74504 18.38262,-20.17702 31.05631,-30.5079 44.53219,-36.30018 26.66563,-11.46155 48.5269,-6.05338 60.21499,14.89635 6.03152,10.81087 6.50531,15.22456 4.54121,42.30279 -2.4137,33.27658 0.49073,48.44431 12.3607,64.55064 9.26477,12.57135 50.16865,39.56271 70.14353,46.28581 20.19199,6.79617 30.67998,15.57027 28.88351,24.16352 -0.78057,3.73388 0.20971,6.71695 2.23011,6.71695 4.74002,0 10.91526,18.44433 15.00625,44.82075 5.96671,38.47022 -4.75536,70.52682 -30.50374,91.19932 -8.04386,6.45813 -10.21587,9.90921 -7.69016,12.21875 6.13314,5.60822 -2.68482,17.32056 -21.75903,28.9012 -20.21433,12.27288 -27.86395,11.84154 -27.86395,-1.57107 0,-8.57603 -0.36253,-8.80351 -8.94072,-5.61004 -4.9174,1.83066 -22.10797,7.07293 -38.20128,11.64949 -16.09329,4.57657 -26.70025,8.39692 -23.57099,8.48964 4.28843,0.12694 5.68955,2.70527 5.68955,10.46921 0,13.58011 -6.44288,16.45563 -36.87038,16.45563 -22.40711,0 -24.16564,0.44591 -22.65063,5.74341 1.36576,4.77569 -1.25007,6.52891 -15.52477,10.4052 -19.52114,5.30101 -51.00491,6.05658 -68.38825,1.64123 -25.63257,-6.51066 -48.20599,-29.05163 -48.33168,-48.26223 -0.064,-9.78274 -2.88346,-10.18625 -14.21653,-2.0346 -10.09196,7.25893 -20.18237,35.02594 -24.61401,67.73349 -2.20846,16.29928 -4.88524,23.73463 -10.53939,29.27523 -10.66863,10.45443 -27.39627,17.66661 -49.73177,21.44221 -21.24942,3.5919 -28.87272,3.628 -50.76436,0.2399 z m 59.69638,-10.84758 c 25.66876,-6.5859 41.34861,-19.84538 41.34861,-34.96605 0,-14.05452 9.1119,-51.11721 15.40676,-62.66708 6.77144,-12.42426 17.23531,-22.29687 23.63219,-22.29687 10.57928,0 8.58143,-3.42754 -13.21205,-22.66664 -24.37941,-21.52196 -41.83167,-48.53682 -48.73583,-75.4396 -10.04606,-39.14551 -2.93171,-105.00609 15.41462,-142.69997 6.38134,-13.11098 8.08892,-21.94751 8.61733,-44.59374 0.52715,-22.59215 2.09216,-30.7205 7.82232,-40.62724 10.16801,-17.57926 24.08908,-25.70351 46.59419,-27.19205 16.12181,-1.06635 21.15833,0.0297 38.11817,8.29558 33.44836,16.30197 35.33092,10.1084 3.87748,-12.75669 -29.26052,-21.27094 -83.87625,-47.82464 -120.29339,-58.4856 -25.36026,-7.42411 -70.31005,-14.9069 -89.54712,-14.9069 -44.37958,0 -95.07904,17.52086 -130.72453,45.17615 -64.68777,50.18751 -106.56598,146.98396 -100.07228,231.30506 5.17472,67.19409 14.08233,125.2225 20.16653,131.37441 14.30863,14.46782 29.79624,18.75785 67.71856,18.75785 32.07824,0 37.27026,-0.76576 50.39317,-7.43229 9.52484,-4.83869 16.70917,-11.3227 20.58759,-18.58072 6.59925,-12.34973 16.08598,-14.75655 21.52629,-5.46125 1.83071,3.12795 5.63035,32.22537 8.44363,64.66093 2.81328,32.43555 5.76734,61.92364 6.56458,65.5291 1.99075,9.00306 20.80172,21.46301 39.50373,26.16641 21.68683,5.45398 44.32188,5.28708 66.84945,-0.4928 z m 196.80984,-65.26815 9.97122,-1.82359 -9.24777,-7.11547 c -14.67615,-11.29226 -79.57817,-34.89558 -89.61708,-32.59163 -6.91459,1.58694 -8.00939,3.10708 -6.13701,8.52151 7.37025,21.31301 32.53322,34.75612 65.14596,34.80369 10.95239,0.0149 24.40047,-0.79157 29.88468,-1.79451 z m 68.70092,-18.90427 c 3.24838,-1.58968 6.73971,-4.87674 7.75856,-7.3046 1.51242,-3.60392 -3.61091,-12.80428 -10.29252,-10.48136 -4.50115,1.56488 -18.105,0.86471 -32.6514,0.86471 -24.53383,0 -28.76147,13.95844 -11.78788,17.69168 11.95684,2.62987 40.9984,2.15352 46.97324,-0.77043 z m -28.27899,-14.12486 c -5.81147,-0.65945 -15.32115,-0.65945 -21.13263,0 -5.81147,0.65948 -1.05663,1.19907 10.56632,1.19907 11.62294,0 16.37778,-0.53959 10.56631,-1.19907 z m 62.58506,-21.7201 c 71.04768,-20.82542 102.11218,-38.67677 117.64837,-67.60714 8.07633,-15.03918 9.11612,-20.17989 8.88048,-43.90507 -0.14696,-14.77932 -1.9311,-29.49525 -3.96513,-32.70208 -3.27247,-5.15943 -3.70956,-5.2317 -3.79705,-0.628 -0.0543,2.86144 -2.49787,5.20261 -5.43001,5.20261 -13.25711,0 -19.24115,-25.62943 -8.51459,-36.46772 5.41183,-5.46818 5.32431,-5.9698 -1.98575,-11.38252 -4.20588,-3.11424 -10.22335,-5.66225 -13.37211,-5.66225 -7.03437,0 -53.06928,-26.95479 -67.51879,-39.53423 -9.51921,-8.28722 -10.56632,-8.59745 -10.56632,-3.13055 0,14.49552 -26.82791,23.25914 -44.95814,14.68606 -17.21457,-8.14012 -24.9944,-29.25328 -16.32743,-44.30994 4.9955,-8.67836 9.04327,-10.83539 20.64593,-11.00202 9.2818,-0.13331 9.44829,-0.35117 3.44257,-4.5049 -8.89573,-6.15254 -13.81963,-5.46387 -21.93183,3.06747 -8.30684,8.73604 -15.64806,9.67653 -15.64806,2.00467 0,-7.03983 12.85553,-17.99534 24.77166,-21.11048 9.1146,-2.38275 8.75557,-2.7104 -13.39255,-12.22248 -12.51702,-5.37576 -23.35838,-10.21658 -24.09191,-10.75739 -3.47791,-2.56413 7.63509,-26.08936 16.92343,-35.82534 l 10.41965,-10.92182 -10.98483,5.76851 c -6.04166,3.17268 -18.4296,13.45313 -27.52876,22.84545 -17.38418,17.94427 -24.96218,21.41436 -54.14483,24.79382 -16.37928,1.89679 -19.15614,3.38933 -33.0551,17.76699 -9.16177,9.47732 -18.02924,22.85773 -22.38104,33.77143 -3.96405,9.94134 -9.13144,18.07517 -11.48307,18.07517 -2.35161,0 -8.2284,-4.73874 -13.05948,-10.53053 -11.4898,-13.77465 -14.00325,-35.06298 -6.31361,-53.47476 5.92529,-14.18726 12.67187,-19.06257 31.02236,-22.41783 l 11.37911,-2.0806 -11.94244,-0.34188 c -8.41426,-0.24087 -14.83357,1.88261 -21.7284,7.1877 -13.44642,10.34606 -18.00294,24.73256 -15.53228,49.04081 1.81568,17.86388 1.04291,21.96395 -7.33656,38.92691 -15.1652,30.6995 -20.6996,59.69601 -19.38353,101.55626 1.0816,34.40164 1.76812,37.61268 12.1722,56.9317 19.96226,37.06733 62.27163,68.16329 113.37492,83.3268 46.3983,13.76743 77.01333,12.76731 135.69292,-4.43283 z M 672.02137,783.87272 c -8.83386,-4.52056 -6.97286,-18.91756 3.88122,-30.02568 8.34547,-8.5408 11.46578,-9.70889 25.93548,-9.70889 13.31014,0 18.03565,1.45114 24.76584,7.60531 4.57443,4.18293 8.63102,11.53706 9.01462,16.34254 l 0.69745,8.73719 -23.08401,1.89527 c -12.69619,1.04242 -25.90122,3.27398 -29.3445,4.95906 -4.08117,1.99723 -8.21188,2.06519 -11.8661,0.19532 z m 11.95053,-10.79415 c -1.96706,-1.2013 -4.41184,-4.19089 -5.43287,-6.64355 -1.24045,-2.97972 -1.94157,-2.23991 -2.11307,2.22969 -0.17231,4.49398 1.6104,6.6741 5.43287,6.64354 3.50942,-0.0267 4.31912,-0.88245 2.11307,-2.22968 z m 42.14069,-8.13001 c -1.02929,-2.45265 -2.44637,-4.45937 -3.14915,-4.45937 -0.70274,0 -1.27774,2.00672 -1.27774,4.45937 0,2.45266 1.41712,4.45938 3.14915,4.45938 1.732,0 2.307,-2.00672 1.27774,-4.45938 z m -70.62161,-82.55595 c -23.00628,-21.03723 -8.54259,-59.84673 22.30389,-59.84673 16.10494,0 26.79932,8.10436 31.93119,24.19795 6.01074,18.8496 3.0063,27.78449 -11.55951,34.37696 -20.78361,9.40663 -33.36919,9.7817 -42.67557,1.27182 z m 20.6783,-6.9469 c 0,-0.991 -3.56351,-4.36497 -7.91888,-7.4977 -4.3554,-3.13274 -8.52526,-9.34543 -9.26639,-13.80599 -1.33022,-8.00601 -1.35376,-7.99459 -1.83464,0.89038 -0.54886,10.14122 7.23812,22.21513 14.32749,22.21513 2.58085,0 4.69242,-0.81082 4.69242,-1.80182 z m 19.38037,-16.59625 c 7.95539,-7.80826 7.99473,-8.22515 1.56791,-16.61543 -5.94698,-7.76381 -13.45611,-8.39694 -23.47603,-1.97937 -8.58967,5.5015 -9.21942,12.2134 -1.84511,19.66452 7.17069,7.24539 15.6715,6.86256 23.75323,-1.06972 z m -76.7002,-15.72954 c -2.66947,-6.36117 10.72695,-29.94775 20.25006,-35.65349 10.94455,-6.5574 34.95488,-5.14363 36.46733,2.14726 0.88471,4.26489 -1.30772,5.2026 -12.16387,5.2026 -15.13779,0 -23.4656,5.9939 -30.88367,22.22834 -5.03054,11.00936 -10.56674,13.46979 -13.66985,6.07529 z m 229.18804,234.45005 c 37.01715,-6.26742 35.72938,-46.8598 -6.99639,-17.46794 -9.80174,6.74281 -10.14138,12.77638 -3.68619,22.13616 2.78803,4.04255 1.86717,-3.17567 10.68258,-4.66822 z m 41.864,-160.04538 c -4.98782,-4.95167 -6.45673,-4.02073 -3.76742,2.38764 1.1235,2.6773 3.33794,4.13587 4.92091,3.24126 1.58296,-0.89458 1.06391,-3.4276 -1.15349,-5.6289 z M 764.76374,645.54947 c -2.23518,-0.82473 -5.89275,-0.82473 -8.12794,0 -2.23518,0.82472 -0.40639,1.49949 4.06397,1.49949 4.47036,0 6.29914,-0.67477 4.06397,-1.49949 z m -17.08531,-5.48171 c -2.23518,-2.46273 -5.19062,-8.81734 -6.56762,-14.12135 -2.17432,-8.37507 -2.54743,-8.65521 -2.83646,-2.12963 -0.30834,6.96201 7.41472,20.72868 11.62876,20.72868 1.01164,0 0.01,-2.01497 -2.22468,-4.4777 z m 24.1682,-9.11278 c 6.19111,-5.66123 6.31651,-7.5464 0.9484,-14.25941 -6.05859,-7.57648 -21.84878,-1.82603 -21.84878,7.95686 0,3.85572 0.97535,7.90227 2.16746,8.99233 3.83099,3.50312 13.4747,2.11842 18.73292,-2.68978 z M 572.13176,614.64084 c 0,-1.7316 -1.46303,-2.32155 -3.25118,-1.311 -1.78814,1.01055 -3.25117,2.42731 -3.25117,3.14837 0,0.72105 1.46303,1.311 3.25117,1.311 1.78815,0 3.25118,-1.41677 3.25118,-3.14837 z m 201.4549,-31.04016 c -1.16067,-11.44573 -2.34049,-16.54148 -2.62184,-11.32389 -0.28123,5.21759 -1.94459,10.2964 -3.69613,11.28626 -1.96558,1.11083 -2.05642,3.73843 -0.23734,6.86451 1.62101,2.78563 3.82003,7.59743 4.88671,10.69289 3.32715,9.65511 3.85853,4.07582 1.6686,-17.51977 z M 583.80711,564.7306 c -9.11642,-1.43687 -18.1777,9.8688 -18.1777,22.6801 l 0,10.58361 12.3645,-16.11557 c 11.3991,-14.85727 11.853,-16.19618 5.8132,-17.14814 z m 15.47772,8.9248 c 7.88699,-7.52766 8.30363,-8.88301 3.78502,-12.31217 -4.31106,-3.27163 -4.75884,-3.09383 -2.96624,1.1778 1.32833,3.16532 -0.66278,7.73132 -5.36905,12.31216 -4.11423,4.00456 -6.76758,7.28103 -5.89636,7.28103 0.87125,0 5.57222,-3.80647 10.44663,-8.45882 z m 161.41494,-1.62832 c 0,-0.64261 -2.27052,-1.9651 -5.04562,-2.93886 -2.89329,-1.01524 -4.19831,-0.51684 -3.05929,1.16838 1.90928,2.82488 8.10491,4.17828 8.10491,1.77048 z m -6.50234,-24.29684 c 0,-12.49239 -4.90079,-22.10143 -11.27211,-22.10143 -4.08374,0 -17.98845,14.69918 -17.98845,19.01626 0,1.72553 22.09842,12.73415 26.82218,13.36182 1.3411,0.17819 2.43838,-4.4463 2.43838,-10.27665 z m 22.07454,-5.81617 c -1.17049,-12.90665 -3.47209,-18.30973 -10.76437,-25.26979 -5.10154,-4.86913 -10.79038,-8.85297 -12.64185,-8.85297 -1.85148,0 0.04,2.18156 4.20288,4.84792 9.39374,6.01651 16.63582,21.33619 16.63582,35.19096 0,5.77539 0.91267,10.5007 2.02818,10.5007 1.11551,0 1.35821,-7.38757 0.53934,-16.41682 z m -7.44428,358.30218 c -1.10514,-1.63511 -1.2053,-4.16253 -0.2227,-5.6165 2.90498,-4.29806 17.92244,-6.66355 23.66099,-3.72696 4.49153,2.29845 3.7449,3.45851 -4.8382,7.51714 -11.75767,5.55976 -15.80805,5.95745 -18.60019,1.82632 z M 920.46733,733.73294 c -2.92241,-41.11907 -20.51714,-59.00476 -44.85331,-66.58722 -19.44965,-6.05997 -53.56707,-26.30435 -65.79899,-39.04342 -14.7756,-15.3882 -17.79624,-27.88469 -15.41309,-63.76467 1.97258,-29.69841 1.62106,-32.40229 -6.03987,-46.46007 -9.05796,-16.62125 -26.57546,-27.92374 -43.27849,-27.92374 -16.28516,0 -38.97705,10.88041 -58.86031,28.22264 -10.32338,9.0041 -19.58002,16.3711 -20.5703,16.3711 -0.99027,0 -9.63615,-6.73719 -19.21309,-14.97152 -56.13989,-48.26962 -135.31774,-80.30708 -222.23648,-90.07256 -5.34761,-0.60081 8.73649,-4.27085 13.54936,-3.65689 58.97005,7.5225 144.95652,31.81282 205.00838,78.56877 l 24.30141,18.92092 15.11968,-13.57114 c 20.22379,-18.15248 48.473,-29.91924 67.19621,-27.98948 19.00846,1.95916 35.70811,12.01989 45.61807,27.48269 8.73395,13.62781 9.65029,20.99494 7.95266,63.93712 -1.02568,25.94533 2.61248,37.79106 15.85096,51.60996 8.61295,8.99055 47.74614,30.9979 62.12484,34.93716 28.27467,7.74628 46.88406,39.83864 44.93313,77.48831 l -0.97412,18.79891 c -4.12399,-6.76935 -3.87194,-14.6327 -4.41665,-22.29687 z M 158.80738,759.5321 c -1.83538,14.58839 -21.30184,-75.80419 28.59737,-202.57334 25.61873,-65.0845 76.94833,-98.85435 136.65526,-122.20209 14.86838,-5.81412 27.81485,0.85169 44.87345,-6.79264 26.79799,-12.00876 58.43109,1.48385 54.19796,1.39638 -66.91951,-1.38276 -166.35947,43.69762 -207.57934,99.24132 -28.6273,38.57523 -62.17965,147.76204 -60.19736,198.82015 0.35901,9.2471 5.62098,14.87555 3.45266,32.11022 z"
       id="path4316"
       inkscape:connector-curvature="0"
       sodipodi:nodetypes="csscsssscsssssssccccssssssssssscssssssscsssscssssscssssssssssssssssssssssssssssssssssssssssscssssssssssssssssssssssssssssssssssssscssscssssssssssssscscsssssssssssssssscssssssssscsssssssscsssscssccssccscssscsssssssssssssssssssssssssssccssssscssscssssssssssscsssssscsssssssssssssssssssscsssccssccsssssssssssscssssssscsssssssss" />
    <image
       y="825.23663"
       x="-1393.6694"
       id="image5159"
       xlink:href="file:///home/pratap/Desktop/photos/oo.jpeg"
       height="201"
       width="239" />
    <path
       style="color:#000000;fill:url(#linearGradient5199);fill-opacity:1;fill-rule:evenodd;stroke:none;stroke-width:9.08806324000000032;marker:none;visibility:visible;display:inline;overflow:visible;enable-background:accumulate"
       d="m 422.33436,691.02619 c -15.41985,-2.49669 -40.47028,-14.7739 -46.10085,-22.59404 -3.30888,-4.59562 -5.3743,-17.43224 -9.88632,-61.44363 -6.85676,-66.88274 -9.14922,-78.10724 -16.15597,-79.10404 -3.29843,-0.46925 -6.79729,1.47456 -10.2406,5.68922 -22.50847,27.55067 -32.37126,31.226 -80.0205,29.81924 -38.08661,-1.12442 -50.45019,-4.71248 -61.50402,-17.84922 -10.12244,-12.02982 -20.42524,-85.07115 -20.52666,-145.52297 -0.0609,-36.29291 0.63755,-44.91778 5.0633,-62.52572 14.5696,-57.96549 38.21552,-100.87834 76.52198,-138.87286 21.92579,-21.74725 35.5061,-30.8963 64.40859,-43.39205 35.39523,-15.30284 70.73376,-20.961 105.26812,-16.85479 49.78395,5.91941 85.34862,16.52862 131.99003,39.37365 41.78693,20.4673 84.66061,50.50484 77.98035,54.63347 -1.12312,0.69412 -10.16763,-2.45225 -20.0989,-6.99194 -16.37953,-7.48724 -19.97605,-8.26832 -38.71709,-8.4084 -19.16042,-0.14321 -21.46888,0.34555 -31.79952,6.73281 -6.71071,4.14912 -13.75042,11.11068 -17.70721,17.51061 -5.85544,9.47098 -6.81715,13.78453 -8.86543,39.76442 -1.9644,24.91603 -3.55372,32.46242 -10.96198,52.04955 -14.79062,39.10575 -21.03042,86.39635 -15.89421,120.45997 5.27332,34.97285 21.57727,63.6714 53.30429,93.82732 17.96655,17.07687 20.4121,21.09504 12.83889,21.09504 -6.09373,0 -19.88357,12.50876 -25.13267,22.79784 -5.51027,10.80104 -12.61345,37.99076 -14.73105,56.38789 -1.98488,17.24427 -7.87941,25.32507 -24.68564,33.84141 -11.86672,6.01333 -39.76903,12.12071 -53.86572,11.79039 -4.38071,-0.10263 -13.59725,-1.09859 -20.48121,-2.21317 z"
       id="path5175"
       inkscape:connector-curvature="0"
       transform="translate(0,308.2677)" />
    <path
       style="color:#000000;fill:url(#linearGradient5185);fill-opacity:1;fill-rule:evenodd;stroke:none;stroke-width:9.08806324000000032;marker:none;visibility:visible;display:inline;overflow:visible;enable-background:accumulate"
       d="M 665.83321,578.82617 C 603.42642,565.69808 552.04187,531.19627 528.07928,486.3322 l -9.02809,-16.9029 -0.76807,-37.17784 c -0.93798,-45.40153 1.35305,-59.86331 14.75156,-93.11701 9.93879,-24.66705 10.33489,-26.5583 10.72405,-51.20303 0.4516,-28.59899 3.10131,-36.37734 15.36729,-45.11149 7.76238,-5.5273 22.88041,-9.23079 27.0817,-6.63425 1.46022,0.90247 -1.24083,2.25387 -6.09701,3.05049 -11.81991,1.93898 -22.52157,8.90241 -27.00454,17.57152 -4.95708,9.58593 -6.68703,28.43982 -3.63988,39.66916 2.71981,10.02302 14.81941,26.17043 19.61007,26.17043 1.67319,0 7.37715,-7.93647 12.67547,-17.6366 10.48385,-19.19378 24.0382,-36.70207 33.78839,-43.64482 3.42624,-2.4397 15.01471,-5.94925 25.94264,-7.85668 25.25787,-4.40868 32.3188,-7.88622 51.09594,-25.16491 25.15885,-23.15115 45.44411,-35.09805 29.35337,-17.28751 -9.24306,10.23095 -20.52734,31.08568 -18.94699,35.01635 0.57808,1.43783 10.35778,6.71048 21.73266,11.717 11.37488,5.00652 20.68524,9.61479 20.68968,10.24061 0.005,0.62581 -5.31532,3.69799 -11.82169,6.82707 -12.51542,6.01897 -20.64622,16.15701 -16.37979,20.42344 1.65462,1.65462 5.70877,0.0114 13.31702,-5.39797 9.57055,-6.80441 11.75921,-7.49058 17.50433,-5.48782 12.26833,4.27676 10.08551,7.19076 -6.86808,9.16862 -13.50119,1.5751 -19.88877,26.78007 -10.10704,39.88164 8.74176,11.70863 16.05294,15.37789 30.47258,15.29326 14.96464,-0.0878 25.50206,-5.74211 26.78498,-14.37261 0.99874,-6.71859 3.542,-6.19125 15.90808,3.29844 14.58479,11.19232 49.63756,31.53526 60.7382,35.24951 10.99367,3.67846 21.61905,10.55774 21.61905,13.997 0,1.38076 -1.59881,4.27714 -3.55292,6.4364 -4.70827,5.20257 -4.75125,21.14741 -0.0762,28.28233 4.26407,6.50781 11.54612,7.52028 13.70092,1.90493 1.14354,-2.97999 2.05029,-3.19999 4.22594,-1.02532 1.78416,1.78335 3.05725,12.9064 3.57709,31.25317 0.7949,28.05421 0.69955,28.70285 -6.31302,42.9474 -8.35114,16.96356 -24.94197,33.16607 -44.73586,43.68879 -15.89622,8.45066 -57.97123,23.32491 -93.12668,32.92191 -30.1968,8.24332 -70.30965,10.58164 -94.44114,5.50526 l -5e-5,0 z m 46.08273,-108.34493 c 14.32561,-1.72388 24.44296,-3.96644 24.41369,-5.41143 -0.0275,-1.35718 -2.0428,-6.85839 -4.47847,-12.22492 -5.17316,-11.39809 -14.57939,-16.4131 -30.78467,-16.4131 -13.15351,0 -22.09445,4.57935 -28.18651,14.4365 -4.73315,7.65841 -6.33862,19.64845 -3.06876,22.9183 0.93628,0.93629 5.28854,1.23797 9.67169,0.67042 4.38315,-0.56756 18.97801,-2.35664 32.43303,-3.97577 l 0,0 z m -23.52467,-94.72111 c 16.21007,-5.23527 22.96865,-11.97777 22.90577,-22.85129 -0.0648,-11.1981 -6.8137,-25.89426 -14.76301,-32.14719 -9.45154,-7.43458 -27.98826,-6.93007 -37.43502,1.01886 -17.98817,15.13605 -18.42954,39.27248 -0.96929,53.00671 7.29594,5.73899 14.76111,5.97899 30.26155,0.97291 z m -57.83126,-46.1993 c 6.86446,-11.39932 15.84741,-20.20237 21.89639,-21.45788 2.97654,-0.6178 9.31788,-1.75304 14.09186,-2.52276 10.20621,-1.64557 10.12788,-5.8319 -0.16435,-8.78368 -15.71085,-4.50581 -32.87015,4.35776 -41.61291,21.49499 -5.07813,9.95396 -5.99025,21.16182 -1.60698,19.74619 1.56454,-0.50528 4.89273,-4.31987 7.39599,-8.47686 l 0,0 z"
       id="path5177"
       inkscape:connector-curvature="0"
       transform="translate(0,308.2677)" />
    <path
       style="color:#000000;fill:#48373e;fill-opacity:1;fill-rule:nonzero;stroke:none;stroke-width:9.08806324;marker:none;visibility:visible;display:inline;overflow:visible;enable-background:accumulate"
       d="m 377.92952,693.23476 c -8.26745,-4.99209 -14.98874,-11.07025 -18.07702,-16.34732 -5.60524,-9.5779 -7.6342,-21.71469 -10.75287,-64.32107 -2.28191,-31.17479 -3.26765,-39.02121 -5.57555,-44.38083 -1.65743,-3.84904 -2.60894,-3.6905 -19.98786,3.33056 -16.33588,6.59966 -23.67021,8.56525 -38.56103,10.33434 -9.67072,1.14891 -28.65235,1.14482 -38.37815,-0.008 -21.45726,-2.54396 -38.4632,-8.2793 -51.96091,-17.52405 -12.49425,-8.55748 -16.80307,-15.87127 -20.99496,-35.63681 -3.11499,-14.68782 -14.15566,-80.27065 -14.64346,-86.98382 -0.29975,-4.12533 -1.15036,-9.42847 -2.11885,-13.21003 -1.46557,-5.72244 -1.61196,-7.18386 -1.55333,-15.50742 0.19306,-27.41031 8.91833,-69.50645 23.45194,-113.14679 12.47515,-37.45937 26.4688,-66.81539 39.90195,-83.70669 l 2.62264,-3.29781 5.63247,-0.005 c 5.30731,-0.004 5.58915,0.0546 4.88197,1.02229 -0.41277,0.56485 -2.71033,3.60172 -5.10568,6.7486 -23.55419,30.94431 -43.37084,73.73518 -51.85671,111.97621 -4.5856,20.66476 -5.825,34.18765 -5.79042,63.17841 0.0261,21.84534 0.30315,28.0283 2.30364,51.40425 1.95769,22.87581 8.73508,78.81713 10.39888,85.8335 4.75516,20.05287 25.31967,33.98638 57.68352,39.08354 22.64064,3.5658 50.69723,1.70464 70.30211,-4.66357 6.0877,-1.97745 16.34257,-6.95806 20.87554,-10.13886 5.5926,-3.92436 10.71081,-9.26604 15.50123,-16.17804 l 4.35752,-6.28737 1.02871,6.86172 c 1.62137,10.81492 3.61669,30.5878 6.7491,66.8812 5.22311,60.51698 5.30965,60.95548 13.61793,69.00424 6.26725,6.07146 17.92379,12.73587 28.90431,16.52549 l 4.88197,1.68487 -11.77416,0.002 -11.77416,0.002 -4.19031,-2.53021 0,-1.4e-4 z"
       id="path5209"
       inkscape:connector-curvature="0"
       transform="translate(0,308.2677)" />
    <path
       style="color:#000000;fill:#48373e;fill-opacity:1;fill-rule:nonzero;stroke:none;stroke-width:9.08806324;marker:none;visibility:visible;display:inline;overflow:visible;enable-background:accumulate"
       d="m 672.45334,600.44469 c -9.88449,-4.97942 -61.54365,-25.14648 -72.59757,-28.34114 -2.81134,-0.8125 -6.04206,-2.03486 -7.17936,-2.71636 -7.97044,-4.77607 -22.54449,-15.74564 -35.92754,-27.04188 -35.73809,-30.16549 -49.52974,-55.77263 -54.3622,-100.935 -0.89988,-8.41002 -0.89995,-31.76049 -1.1e-4,-39.63009 2.36608,-20.69273 5.90326,-34.83611 15.00537,-59.99875 7.94052,-21.95145 9.43908,-28.76104 11.7593,-53.43522 2.61235,-27.78077 4.62008,-35.69002 11.53654,-45.44699 4.73313,-6.67697 15.4762,-15.27795 21.90541,-17.53764 5.92897,-2.08387 17.03318,-2.7719 26.00518,-1.61131 10.88083,1.4075 21.10745,5.54936 27.41001,11.10128 2.50062,2.20279 4.48496,3.41116 6.60501,4.02214 5.26905,1.51847 13.01667,2.25751 19.9738,1.90528 9.9326,-0.50288 12.85668,-1.63815 12.76238,-4.95497 -0.10623,-3.73627 -5.33792,-10.37771 -15.06266,-19.12149 l -4.30473,-3.87049 6.19527,-0.006 6.19527,-0.006 7.38874,5.98007 c 8.93913,7.23487 9.3778,7.49517 11.09199,6.58182 1.32031,-0.70348 6.05104,-4.43448 12.20492,-9.62571 l 3.44609,-2.90701 6.60502,-0.0232 6.60501,-0.0232 -12.15189,12.32206 c -13.23132,13.41659 -15.02424,14.72268 -23.28592,16.96311 -9.1931,2.49303 -29.67637,5.44438 -33.87849,4.88143 -2.98832,-0.40034 -5.9729,-2.13694 -13.19034,-7.67484 -15.19804,-11.66139 -36.4817,-15.03892 -52.85185,-8.38713 -6.73899,2.73829 -11.85826,7.98918 -18.40234,18.87544 -5.64133,9.38453 -6.51014,13.65424 -7.32886,36.01724 -0.94984,25.94436 -1.50228,28.78 -9.16214,47.02777 -5.26284,12.53744 -7.99473,20.69078 -10.69103,31.90745 -8.66861,36.06157 -10.00059,76.92609 -3.36643,103.28058 10.11113,40.1669 47.87346,79.35866 97.8981,101.60387 18.52734,8.23882 33.97166,12.96163 55.10296,16.85024 16.53847,3.04342 17.07366,3.28461 14.29943,6.44428 -1.85437,2.11201 -1.95192,3.19684 -0.74714,8.3093 0.48135,2.0426 -0.0565,1.96656 -5.5052,-0.77828 l 0,0 z"
       id="path5211"
       inkscape:connector-curvature="0"
       transform="translate(0,308.2677)" />
    <path
       style="color:#000000;fill:#48373e;fill-opacity:1;fill-rule:nonzero;stroke:none;stroke-width:9.08806324;marker:none;visibility:visible;display:inline;overflow:visible;enable-background:accumulate"
       d="m 453.01156,708.71597 c -2.37144,-0.50201 -7.49984,-1.12851 -11.32469,-1.38345 -3.20807,-0.21383 -13.01454,-0.21362 -16.78227,3.1e-4 -1.52426,0.0866 -4.02945,0.22543 -5.56707,0.30858 -6.90088,0.3732 -13.85292,-0.68362 -21.24714,-3.22988 -9.24139,-3.18229 -18.89793,-8.76969 -27.53573,-15.93245 -1.84149,-1.52702 -3.64412,-3.1824 -3.55862,-3.26791 0.0416,-0.0415 0.65138,0.42344 1.35518,1.0333 2.79388,2.42094 6.33963,4.91303 11.04908,7.7657 l 2.68702,1.62762 11.45487,0 11.45486,0 1.56264,0.45282 c 5.21448,1.51104 9.27155,2.34668 16.42033,3.38211 10.55694,1.52907 15.59718,1.93103 22.76994,1.81591 7.42138,-0.11912 14.93949,-0.97791 25.96025,-2.96543 19.97537,-3.60242 35.31586,-10.03694 45.7383,-19.18481 3.07156,-2.69593 4.82552,-4.78034 6.51611,-7.74376 l 0.78682,-1.37923 0,8.51977 0,8.51977 -1.11625,1.31823 c -2.12143,2.50528 -5.57916,5.80658 -8.27566,7.90128 -7.22499,5.61252 -15.42014,9.29154 -24.4604,10.98092 -4.31526,0.80641 -5.75861,0.92271 -11.49063,0.92584 -4.74173,0.003 -5.77704,-0.0422 -8.62208,-0.37318 -5.80806,-0.67564 -9.23009,-0.48729 -13.16408,0.72454 -0.97384,0.29999 -1.94382,0.56258 -2.15552,0.58355 -0.21171,0.021 -1.31657,-0.1591 -2.45526,-0.40015 z"
       id="path5221"
       inkscape:connector-curvature="0"
       transform="translate(0,308.2677)" />
    <path
       style="color:#000000;fill:#48373e;fill-opacity:1;fill-rule:nonzero;stroke:none;stroke-width:9.08806324;marker:none;visibility:visible;display:inline;overflow:visible;enable-background:accumulate"
       d="m 524.21002,679.44007 c -0.13609,-6.94835 -0.0146,-8.56895 0.76696,-10.22707 1.65375,-3.50869 3.02228,-9.54004 5.45022,-24.02016 4.28254,-25.54073 9.05269,-41.83785 15.83665,-54.10548 3.61998,-6.54612 6.02009,-9.30801 10.9247,-12.57143 5.07468,-3.37657 7.30029,-4.31557 9.13643,-3.85473 1.66595,0.41813 2.32829,2.29407 2.76556,7.83289 0.81612,10.33747 5.16929,18.82904 14.44119,28.1699 11.26215,11.34591 24.29991,18.23582 39.38768,20.81473 12.3038,2.10305 29.14496,2.3092 44.40429,0.54354 16.2667,-1.88222 32.57245,-6.73827 33.61076,-10.00969 0.18338,-0.5778 0.17292,-2.33513 -0.0233,-3.90519 -0.3293,-2.63563 -0.25524,-2.92111 0.96534,-3.72086 1.91844,-1.25701 9.15814,-1.86238 22.40264,-1.87325 23.66244,-0.0194 31.98757,-2.05107 34.93547,-8.52558 0.91844,-2.01718 1.12151,-3.50045 1.10844,-8.09643 -0.0189,-6.63441 -0.86502,-8.945 -3.46624,-9.46524 -0.87766,-0.17553 -1.72673,-0.5311 -1.88684,-0.79016 -0.54062,-0.87476 7.70304,-3.77854 26.16995,-9.2182 l 6.29667,-1.85476 0,3.35011 0,3.35012 -4.42106,0.31755 c -5.79779,0.41643 -11.38287,2.16597 -13.42109,4.20418 -1.39582,1.39582 -1.54809,1.85128 -1.28205,3.83476 0.69687,5.19559 5.21069,6.04359 13.76534,2.58608 l 5.09092,-2.05759 0.15801,4.02649 c 0.0869,2.21457 -0.0336,4.20679 -0.26794,4.42716 -0.23428,0.22037 -3.56089,1.6586 -7.39248,3.19606 -3.83159,1.53746 -10.82492,4.66687 -15.54072,6.95422 -11.0056,5.33818 -14.14524,6.33698 -27.91529,8.88058 -10.45468,1.93119 -18.96724,4.88194 -27.82481,9.64506 -19.30583,10.38162 -33.74504,14.31999 -55.18845,15.05294 -36.2786,1.24003 -67.80763,-11.29794 -85.11202,-33.84602 -4.76803,-6.21288 -6.72453,-8.24976 -9.07694,-9.44987 -5.38556,-2.74751 -9.23416,1.99607 -13.48379,16.61941 -2.95231,10.15912 -5.04477,21.18012 -5.92541,31.20917 -0.85354,9.72024 -2.02023,15.64354 -4.24595,21.55675 -1.92046,5.1022 -5.40599,11.62941 -8.41166,15.75221 l -2.56951,3.52451 -0.16171,-8.25671 0,0 z"
       id="path5223"
       inkscape:connector-curvature="0"
       transform="translate(0,308.2677)" />
    <path
       style="color:#000000;fill:#48373e;fill-opacity:1;fill-rule:nonzero;stroke:none;stroke-width:9.08806324;marker:none;visibility:visible;display:inline;overflow:visible;enable-background:accumulate"
       d="m 787.00074,594.41757 0.002,-4.15312 3.4985,-1.80903 c 1.92417,-0.99497 3.73168,-2.24474 4.01668,-2.77727 0.76376,-1.4271 -1.87624,-3.08869 -6.3083,-3.97039 -1.99229,-0.39634 -3.07975,-0.74327 -2.41659,-0.77097 1.106,-0.0462 1.20574,-0.30743 1.20574,-3.1581 l 0,-3.10775 6.29667,-1.80289 c 3.46317,-0.99159 11.39679,-3.45149 17.63026,-5.46644 6.23347,-2.01495 11.81066,-3.66355 12.39375,-3.66355 1.73137,0 2.11096,1.05121 2.51563,6.96653 0.42357,6.19144 1.14029,8.52342 3.02549,9.84387 3.97969,2.78748 14.35634,-0.99594 28.58255,-10.42147 15.66004,-10.37549 22.71605,-20.26947 18.24491,-25.58312 -2.46775,-2.93275 -1.98565,-4.02648 4.40796,-10.00025 14.89414,-13.91611 19.82408,-19.87891 25.08321,-30.33834 4.5149,-8.97928 7.23034,-18.1115 9.1078,-30.63016 l 0.30138,-2.00958 4.212,0 4.21198,0 -0.25573,3.34929 c -0.87374,11.44311 -4.29263,22.88918 -10.6718,35.72807 -4.7859,9.63223 -8.22643,14.80016 -16.86556,25.33327 -3.69996,4.51111 -8.79861,11.09581 -11.33035,14.63266 -6.61643,9.2432 -13.46425,15.45029 -25.34927,22.9774 -11.30865,7.16209 -21.97991,11.66126 -30.0316,12.6618 -6.78143,0.84269 -24.67745,6.14453 -37.75807,11.18613 -1.62106,0.6248 -3.12824,1.13612 -3.34929,1.13627 -0.22106,1.4e-4 -0.40103,-1.86864 -0.39994,-4.15286 z"
       id="path5225"
       inkscape:connector-curvature="0"
       transform="translate(0,308.2677)" />
    <path
       style="color:#000000;fill:#48373e;fill-opacity:1;fill-rule:nonzero;stroke:none;stroke-width:9.08806324;marker:none;visibility:visible;display:inline;overflow:visible;enable-background:accumulate"
       d="m 914.58521,471.10157 c 0.97755,-11.53956 0.34841,-22.17983 -2.15912,-36.51579 -3.1741,-18.14692 -7.71392,-32.94428 -11.39278,-37.13426 -0.7087,-0.80717 -1.68187,-1.45481 -2.52873,-1.68284 -2.12112,-0.57116 -2.4695,-1.57274 -2.35698,-6.77646 0.0895,-4.13791 0.0493,-4.41929 -0.9108,-6.37445 -2.99891,-6.10729 -11.60951,-11.66855 -26.86757,-17.35274 -15.8395,-5.9008 -35.76585,-17.44195 -54.46745,-31.54703 l -5.42692,-4.09308 6.36502,-0.096 6.36503,-0.096 4.53044,3.12945 c 16.37115,11.30856 34.94046,21.0895 49.69008,26.17308 8.81381,3.03775 11.62635,4.3625 17.3299,8.16267 5.09335,3.3936 11.45725,9.71995 14.67648,14.58988 7.41055,11.21045 11.59628,25.04834 12.96635,42.86637 0.21635,2.81366 0.58505,7.02091 0.81934,9.34945 0.23683,2.35372 0.34765,6.42704 0.24958,9.17305 -0.24414,6.83589 -0.22115,12.12554 0.0916,21.08038 l 0.26801,7.67361 -3.50562,0 c -3.03118,0 -3.53133,0.0836 -3.69547,0.61741 -0.1044,0.33958 -0.12258,-0.1764 -0.0404,-1.14663 l 0,0 z"
       id="path5229"
       inkscape:connector-curvature="0"
       transform="translate(0,308.2677)" />
    <path
       style="color:#000000;fill:#48373e;fill-opacity:1;fill-rule:nonzero;stroke:none;stroke-width:9.08806324;marker:none;visibility:visible;display:inline;overflow:visible;enable-background:accumulate"
       d="m 899.24007,530.74811 c 0,-0.0851 0.92922,-1.39489 2.06494,-2.91068 9.13116,-12.18703 16.81976,-28.78245 19.78551,-42.70594 l 0.65879,-3.09282 0.0353,2.31976 c 0.0907,5.96008 -2.76681,16.14446 -6.67434,23.78815 -3.47663,6.80076 -6.94498,12.03913 -12.78942,19.31633 -2.51891,3.13642 -3.08077,3.73556 -3.08077,3.2852 z"
       id="path5231"
       inkscape:connector-curvature="0"
       transform="translate(0,308.2677)" />
    <path
       style="color:#000000;fill:#48373e;fill-opacity:1;fill-rule:nonzero;stroke:none;stroke-width:9.08806324;marker:none;visibility:visible;display:inline;overflow:visible;enable-background:accumulate"
       d="m 806.02069,327.43507 c -13.13182,-11.25625 -19.94693,-25.01548 -21.47733,-43.36124 -0.45664,-5.47406 -0.22739,-24.55243 0.38155,-31.75287 0.19692,-2.32854 0.50922,-7.75673 0.69399,-12.06264 0.54966,-12.80957 -0.21785,-18.24819 -3.52557,-24.98236 -4.8337,-9.84092 -10.9499,-16.41383 -18.86136,-20.26977 -6.20895,-3.02616 -11.82309,-4.11761 -19.55606,-3.80194 -15.61105,0.63728 -32.14181,8.07034 -46.99577,21.13166 -2.29358,2.01678 -3.51032,2.74941 -2.24604,1.3524 0.63631,-0.70311 0.61623,-0.70562 -5.65378,-0.70562 l -6.29235,0 1.38654,-1.18386 c 0.7626,-0.65113 3.24098,-2.70766 5.50751,-4.57006 20.22904,-16.62218 42.22924,-26.36725 57.62071,-25.52334 12.79848,0.70174 25.98616,7.78417 35.27466,18.9442 5.79757,6.96572 11.10027,17.45199 12.5701,24.85781 0.69554,3.50451 0.59663,16.06068 -0.2251,28.57757 -0.80176,12.21247 -0.90988,28.2757 -0.22679,33.69332 1.22259,9.69649 3.70665,16.58852 8.47954,23.5266 3.49716,5.08362 9.36911,11.17781 14.59376,15.1461 1.21694,0.9243 2.65313,2.04059 3.19154,2.48063 l 0.97892,0.8001 -6.34872,0.10366 -6.34872,0.10366 -2.92123,-2.50401 0,0 z"
       id="path5233"
       inkscape:connector-curvature="0"
       transform="translate(0,308.2677)" />
    <path
       style="color:#000000;fill:#48373e;fill-opacity:1;fill-rule:nonzero;stroke:none;stroke-width:9.08806324;marker:none;visibility:visible;display:inline;overflow:visible;enable-background:accumulate"
       d="M 634.26893,211.43556 C 627.4406,205.806 613.1393,195.67178 603.8558,189.88414 549.634,156.08049 485.09654,134.95946 422.11934,130.40764 c -7.67861,-0.55498 -26.28038,-0.47064 -33.75464,0.15306 -14.19533,1.18454 -24.55221,2.87237 -37.35594,6.08777 -3.49282,0.87715 -6.71792,1.67835 -7.1669,1.78045 -0.76821,0.17469 -0.80981,0.0952 -0.70562,-1.34767 l 0.1107,-1.5333 4.76293,-1.53342 c 23.98187,-7.72093 43.7093,-11.63543 64.54919,-12.80846 8.34783,-0.46987 9.4097,-0.41518 20.33448,1.04731 82.48889,11.04269 154.02203,40.21307 208.97482,85.2175 l 6.49506,5.31923 -1.90853,0.0843 c -1.0497,0.0463 -3.75501,0.12572 -6.0118,0.17641 l -4.10324,0.0921 -2.07092,-1.70736 z"
       id="path5235"
       inkscape:connector-curvature="0"
       transform="translate(0,308.2677)" />
    <path
       style="color:#000000;fill:#48373e;fill-opacity:1;fill-rule:nonzero;stroke:none;stroke-width:9.08806324;marker:none;visibility:visible;display:inline;overflow:visible;enable-background:accumulate"
       d="m 231.59131,213.35318 c -0.15489,-0.25061 -1.9801,-0.38667 -5.18713,-0.38667 l -4.94816,0 1.17627,-1.48679 c 2.05162,-2.59319 11.55367,-12.17593 16.15075,-16.28789 23.6265,-21.13323 54.4281,-39.76643 88.43572,-53.49852 5.61002,-2.2653 15.48023,-5.9921 15.8697,-5.9921 0.0804,0 0.14616,0.54403 0.14616,1.20897 0,0.81711 0.18023,1.24593 0.55605,1.32303 0.30583,0.0627 -1.65978,0.78212 -4.36804,1.59862 -38.42842,11.58565 -75.31446,36.17521 -103.09159,68.72456 -4.69942,5.50681 -4.45426,5.25869 -4.73973,4.79679 z"
       id="path5237"
       inkscape:connector-curvature="0"
       transform="translate(0,308.2677)" />
    <path
       style="color:#000000;fill:#48373e;fill-opacity:1;fill-rule:nonzero;stroke:none;stroke-width:9.08806324;marker:none;visibility:visible;display:inline;overflow:visible;enable-background:accumulate"
       d="m 181.47187,345.18191 c 11.35706,-55.90859 38.53146,-108.13865 75.49328,-145.10047 17.04713,-17.04713 33.23521,-28.61504 55.29463,-39.51322 21.75785,-10.74919 44.50212,-17.89686 68.37266,-21.48696 12.34098,-1.85607 27.34178,-2.43539 38.10344,-1.47153 16.45164,1.47348 47.82403,6.4501 52.39222,8.31102 0.59996,0.24439 4.11285,12.68033 23.45861,83.04553 12.51414,45.51696 22.86281,82.64552 22.99704,82.50791 0.34303,-0.35167 1.54259,-6.54297 2.2017,-11.3637 0.30511,-2.23153 0.62464,-4.53361 0.71007,-5.11574 0.0854,-0.58214 0.0857,0.5699 3.6e-4,2.56008 -0.32159,7.51611 -2.14023,16.25903 -4.70589,22.62314 -0.75263,1.86689 -2.63113,6.17273 -4.17443,9.56852 -1.54331,3.39579 -3.65161,8.51594 -4.68512,11.37811 l -1.87911,5.20394 -161.90627,0 -161.90627,0 0.23292,-1.14663 1.6e-4,0 z"
       id="path5239"
       inkscape:connector-curvature="0"
       transform="translate(0,308.2677)" />
    <path
       style="color:#000000;fill:#48373e;fill-opacity:1;fill-rule:nonzero;stroke:none;stroke-width:9.08806324;marker:none;visibility:visible;display:inline;overflow:visible;enable-background:accumulate"
       d="m 367.40295,618.6773 c -0.16255,-0.5189 -1.1931,-9.60445 -2.29013,-20.1901 -6.06318,-58.50615 -8.72692,-70.19361 -15.9981,-70.19361 -4.06651,0 -5.35592,1.17415 -18.1508,16.52839 -5.74535,6.89459 -17.58815,14.01066 -28.0259,16.84015 -5.11143,1.3856 -8.5372,1.60195 -30.29319,1.9131 -27.65974,0.39557 -39.85583,-0.54178 -51.68145,-3.97205 -8.77047,-2.54406 -14.02018,-5.39452 -20.18902,-10.96212 -5.85017,-5.28 -6.58505,-7.03658 -10.72278,-25.63086 -4.84813,-21.78666 -7.55192,-41.7389 -10.99526,-81.13778 -1.26982,-14.52932 -2.51641,-32.36077 -2.7702,-39.62543 -1.47027,-42.08508 9.51784,-89.31214 30.69097,-131.91027 23.99446,-48.27435 58.44635,-85.6635 98.12996,-106.49623 37.43531,-19.65243 78.84814,-29.34109 113.58579,-26.57374 33.10443,2.63724 68.78487,10.16225 96.38165,20.32692 30.31257,11.16496 69.7555,30.65228 92.82127,45.85961 17.63716,11.62824 32.32208,24.06398 32.32208,27.37157 0,3.45566 -6.77728,1.7656 -23.67787,-5.90462 -15.20237,-6.89949 -16.73199,-7.19676 -37.08112,-7.20634 -19.26735,-0.009 -20.16712,0.14883 -28.47037,4.9965 -13.50294,7.88337 -23.12257,20.34038 -25.8608,33.4886 -0.60516,2.90586 -1.78826,13.09526 -2.62908,22.6431 -2.80093,31.80539 -2.63672,30.9861 -10.58418,52.80574 -12.19537,33.48221 -18.06847,64.59188 -18.10705,95.91265 -0.047,38.19493 10.18897,67.26517 34.40644,97.71403 2.80642,3.52855 12.36432,13.64503 21.23976,22.48106 13.88264,13.821 16.10416,16.34549 15.90091,18.06953 -0.19806,1.67996 -0.78616,2.14358 -3.63702,2.86718 -6.56266,1.66573 -13.01111,6.32834 -19.17944,13.86788 -6.21335,7.59456 -9.32045,14.64559 -14.41868,32.72068 l -1.22412,4.33993 -79.59837,0 c -63.0179,0 -79.65993,-0.19653 -79.8939,-0.94347 l 0,0 z"
       id="path5241"
       inkscape:connector-curvature="0"
       transform="translate(0,308.2677)" />
    <path
       style="color:#000000;fill:#48373e;fill-opacity:1;fill-rule:nonzero;stroke:none;stroke-width:9.08806324;marker:none;visibility:visible;display:inline;overflow:visible;enable-background:accumulate"
       d="m 565.49561,282.8464 c 0,-9.73433 1.85082,-15.75014 6.4036,-20.81392 4.02909,-4.48132 6.48728,-5.62584 11.41184,-5.31327 6.65002,0.42207 5.87596,2.39708 -8.22687,20.99073 -4.56548,6.01929 -8.59061,11.26683 -8.94472,11.66119 -0.36037,0.40133 -0.64385,-2.47145 -0.64385,-6.52473 z"
       id="path5249"
       inkscape:connector-curvature="0"
       transform="translate(0,308.2677)" />
    <path
       style="color:#000000;fill:#453748;fill-opacity:1;fill-rule:nonzero;stroke:none;stroke-width:9.08806324000000032;marker:none;visibility:visible;display:inline;overflow:visible;enable-background:accumulate"
       d="m 638.31483,624.59578 c -28.08476,-2.40923 -48.43359,-13.84901 -56.51587,-31.77232 -3.30334,-7.3255 -3.3047,-7.51521 -0.0704,-9.88016 4.81358,-3.51978 8.80644,-3.05622 29.81997,3.462 34.1018,10.57808 62.60025,23.37427 70.29248,31.56226 l 3.7985,4.04332 -9.30359,0.94242 c -14.71383,1.49045 -31.39366,2.21101 -38.02106,1.64248 z"
       id="path5263"
       inkscape:connector-curvature="0"
       transform="translate(0,308.2677)" />
    <path
       style="color:#000000;fill:#453748;fill-opacity:1;fill-rule:nonzero;stroke:none;stroke-width:9.08806324;marker:none;visibility:visible;display:inline;overflow:visible;enable-background:accumulate"
       d="m 737.10668,243.74826 c -6.21152,-3.15342 -11.31987,-6.76282 -11.58194,-8.18342 -0.70373,-3.81475 13.37803,-17.77962 17.86996,-17.72162 6.251,0.0807 9.59372,6.5917 10.20999,19.88711 0.65702,14.17473 0.0239,14.40567 -16.49801,6.01793 l 0,0 z"
       id="path5265"
       inkscape:connector-curvature="0"
       transform="translate(0,308.2677)" />
    <path
       style="color:#000000;fill:#453748;fill-opacity:1;fill-rule:nonzero;stroke:none;stroke-width:9.08806324;marker:none;visibility:visible;display:inline;overflow:visible;enable-background:accumulate"
       d="m 774.55773,248.38298 c -0.25721,-0.89742 -0.65773,-4.47079 -0.89005,-7.94081 -0.66916,-9.99481 -1.98201,-15.3829 -5.41996,-22.24426 -3.04438,-6.07589 -6.065,-9.79945 -10.88533,-13.41851 -3.92768,-2.94888 -5.0038,-3.95128 -5.0038,-4.66103 0,-2.30977 7.47695,2.57425 14.06183,9.18533 5.60274,5.62504 7.80066,10.07269 9.24736,18.71269 0.75085,4.48426 1.33544,17.98526 0.88315,20.39619 -0.39149,2.08681 -1.39088,2.07197 -1.9932,-0.0296 l 0,-1e-5 z"
       id="path5267"
       inkscape:connector-curvature="0"
       transform="translate(0,308.2677)" />
    <path
       style="color:#000000;fill:#453748;fill-opacity:1;fill-rule:nonzero;stroke:none;stroke-width:9.08806324;marker:none;visibility:visible;display:inline;overflow:visible;enable-background:accumulate"
       d="m 757.14202,264.83707 c -2.85568,-0.86866 -5.5521,-3.05287 -4.95716,-4.0155 0.82474,-1.33445 8.44088,1.41526 8.44088,3.04748 0,0.50117 -0.39346,0.9434 -0.979,1.10031 -1.12654,0.3019 -1.06696,0.30505 -2.50472,-0.13229 z"
       id="path5271"
       inkscape:connector-curvature="0"
       transform="translate(0,308.2677)" />
    <path
       style="color:#000000;fill:#453748;fill-opacity:1;fill-rule:nonzero;stroke:none;stroke-width:9.08806324;marker:none;visibility:visible;display:inline;overflow:visible;enable-background:accumulate"
       d="m 772.68136,294.94007 c -0.61414,-1.37604 -1.51587,-3.5216 -2.00385,-4.76789 -0.48798,-1.2463 -1.77445,-4.03255 -2.85882,-6.19167 -2.32967,-4.63864 -2.58266,-6.89554 -0.94428,-8.42374 2.03057,-1.89403 3.26076,-5.37387 3.992,-11.29216 0.60235,-4.87509 1.49011,-1.17092 2.84168,11.85683 1.45451,14.01999 1.61109,21.32053 0.45729,21.32053 -0.20208,0 -0.86988,-1.12585 -1.48402,-2.5019 z"
       id="path5273"
       inkscape:connector-curvature="0"
       transform="translate(0,308.2677)" />
    <path
       style="color:#000000;fill:#453748;fill-opacity:1;fill-rule:nonzero;stroke:none;stroke-width:9.08806324;marker:none;visibility:visible;display:inline;overflow:visible;enable-background:accumulate"
       d="m 588.6423,273.57015 c 0,-0.21894 2.04666,-2.68743 4.54813,-5.48554 2.50146,-2.79812 5.04924,-5.94259 5.66173,-6.98772 1.47011,-2.50855 1.78852,-5.12693 0.9178,-7.54726 -0.37672,-1.04716 -0.68494,-2.07512 -0.68494,-2.28434 0,-0.82682 1.33181,-0.29771 3.43477,1.36458 2.7479,2.17209 3.70487,3.57881 3.36252,4.94283 -0.42754,1.70347 -4.07782,5.71922 -9.61269,10.57512 -5.02109,4.40516 -7.62732,6.25794 -7.62732,5.42233 z"
       id="path5275"
       inkscape:connector-curvature="0"
       transform="translate(0,308.2677)" />
    <path
       style="color:#000000;fill:#453748;fill-opacity:1;fill-rule:nonzero;stroke:none;stroke-width:9.08806324;marker:none;visibility:visible;display:inline;overflow:visible;enable-background:accumulate"
       d="m 566.56032,309.17647 c -1.41085,-0.5671 -1.20975,-1.47222 0.65267,-2.93758 2.98484,-2.34848 4.89502,-2.20716 4.89502,0.36215 0,2.28352 -2.9114,3.63509 -5.54769,2.57543 z"
       id="path5279"
       inkscape:connector-curvature="0"
       transform="translate(0,308.2677)" />
  </g>
</svg>
